<?xml version="1.0" encoding="utf-8"?>
<!-- Generator: Adobe Illustrator 22.0.0, SVG Export Plug-In . SVG Version: 6.00 Build 0)  -->
<svg version="1.1" id="Layer_1" xmlns="http://www.w3.org/2000/svg" xmlns:xlink="http://www.w3.org/1999/xlink" x="0px" y="0px"
	 viewBox="0 0 103.5 107" style="enable-background:new 0 0 103.5 107;" xml:space="preserve">
<style type="text/css">
	.st0{fill:#F7C400;}
	.st1{fill:#FFFFFF;}
</style>
<path class="st0" d="M97.2,51.2c0,24.5-19.9,44.4-44.4,44.4S8.4,75.7,8.4,51.2S28.3,6.8,52.8,6.8C77.3,6.8,97.2,26.7,97.2,51.2"/>
<g>
	<path class="st1" d="M63.3,49.3H43.8c-0.8,0-1.5,0.5-1.8,1.3s0,1.6,0.6,2.1l2.9,2.4c0.3,0.3,0.8,0.4,1.2,0.4h13.7
		c0.5,0,0.9-0.2,1.2-0.4l2.9-2.4c0.6-0.5,0.9-1.4,0.6-2.1C64.8,49.8,64.1,49.3,63.3,49.3 M63.4,51.4l-2.9,2.4h-0.1H46.7h-0.1
		l-2.9-2.4c0,0-0.1-0.1,0-0.1c0-0.1,0.1-0.1,0.1-0.1h19.5C63.4,51.2,63.4,51.2,63.4,51.4C63.5,51.3,63.4,51.3,63.4,51.4L63.4,51.4z"
		/>
	<path class="st1" d="M69.8,49.8l-2.9,2.4c-0.6,0.5-0.9,1.4-0.6,2.1c0.3,0.8,1,1.3,1.8,1.3h7.1c1,0,1.8-0.8,1.8-1.8v-2.7
		c0-1-0.8-1.8-1.8-1.8h-4.1C70.6,49.3,70.1,49.5,69.8,49.8 M75.1,51.1v2.7h-7c-0.1,0-0.1,0-0.1-0.1s0-0.1,0-0.1l2.9-2.4H71
		L75.1,51.1z"/>
	<path class="st1" d="M37.3,49.8c-0.3-0.3-0.8-0.4-1.2-0.4H32c-1,0-1.8,0.8-1.8,1.8v2.7c0,1,0.8,1.8,1.8,1.8h7.1
		c0.8,0,1.5-0.5,1.8-1.3s0-1.6-0.6-2.1L37.3,49.8z M39.1,53.7c0,0.1-0.1,0.1-0.1,0.1h-7.1v-2.7H36h0.1l2.9,2.4
		C39.1,53.6,39.2,53.7,39.1,53.7"/>
	<path class="st1" d="M38.2,58.3h-6.3c-0.5,0-0.9,0.4-0.9,0.9s0.4,0.9,0.9,0.9h6.3c0.5,0,0.9-0.4,0.9-0.9S38.7,58.3,38.2,58.3"/>
	<path class="st1" d="M75.1,58.3h-6.3c-0.5,0-0.9,0.4-0.9,0.9s0.4,0.9,0.9,0.9h6.3c0.5,0,0.9-0.4,0.9-0.9S75.6,58.3,75.1,58.3"/>
	<path class="st1" d="M61.6,58.3H45.4c-0.5,0-0.9,0.4-0.9,0.9s0.4,0.9,0.9,0.9h16.2c0.5,0,0.9-0.4,0.9-0.9S62.1,58.3,61.6,58.3"/>
	<path class="st1" d="M80.5,41.2c0-1.5-1.2-2.7-2.7-2.7H76c-0.8,0-1.5,0.3-2,0.9l-1.7-5.1c-0.6-1.8-2.3-3.1-4.3-3.1H39
		c-1.9,0-3.7,1.2-4.3,3.1L33,39.4c-0.5-0.6-1.3-0.9-2-0.9h-1.8c-1.5,0-2.7,1.2-2.7,2.7s1.2,2.7,2.7,2.7h1.4l-3.3,3.3
		c-0.5,0.5-0.8,1.2-0.8,1.9V61c0,1.1,0.7,2.2,1.8,2.5v2.9c0,1.5,1.2,2.7,2.7,2.7h6.3c1.5,0,2.7-1.2,2.7-2.7v-2.7h27v2.7
		c0,1.5,1.2,2.7,2.7,2.7H76c1.5,0,2.7-1.2,2.7-2.7v-2.9c1.1-0.4,1.8-1.4,1.8-2.5V49.2c0-0.7-0.3-1.4-0.8-1.9L76.4,44h1.4
		C79.3,43.9,80.5,42.7,80.5,41.2 M36.5,35c0.4-1.1,1.4-1.8,2.6-1.8h29c1.2,0,2.2,0.7,2.6,1.8l2.4,7.2h-39L36.5,35z M29.2,42.1
		c-0.5,0-0.9-0.4-0.9-0.9s0.4-0.9,0.9-0.9H31c0.5,0,0.9,0.4,0.9,0.9v0.9H29.2z M38.2,66.4c0,0.5-0.4,0.9-0.9,0.9H31
		c-0.5,0-0.9-0.4-0.9-0.9v-2.7h8.1V66.4z M76.9,66.4c0,0.5-0.4,0.9-0.9,0.9h-6.3c-0.5,0-0.9-0.4-0.9-0.9v-2.7h8.1L76.9,66.4
		L76.9,66.4z M78.5,48.5c0.2,0.2,0.3,0.4,0.3,0.6V61c0,0.5-0.4,0.9-0.9,0.9H29.3c-0.5,0-0.9-0.4-0.9-0.9V49.2c0-0.2,0.1-0.5,0.3-0.6
		l4.6-4.6H74L78.5,48.5z M75.1,42.1v-0.9c0-0.5,0.4-0.9,0.9-0.9h1.8c0.5,0,0.9,0.4,0.9,0.9s-0.4,0.9-0.9,0.9H75.1z"/>
</g>
</svg>
