<?xml version="1.0" encoding="utf-8"?>
<!-- Generator: Adobe Illustrator 22.0.0, SVG Export Plug-In . SVG Version: 6.00 Build 0)  -->
<svg version="1.1" id="Layer_1" xmlns="http://www.w3.org/2000/svg" xmlns:xlink="http://www.w3.org/1999/xlink" x="0px" y="0px"
	 viewBox="0 0 100.5 99" style="enable-background:new 0 0 100.5 99;" xml:space="preserve">
<style type="text/css">
	.st0{fill:#F6C415;}
	.st1{fill:#FFFFFF;}
</style>
<path class="st0" d="M92.2,47c0,24.5-19.9,44.4-44.4,44.4S3.4,71.5,3.4,47S23.3,2.6,47.8,2.6C72.4,2.6,92.2,22.5,92.2,47"/>
<path class="st1" d="M57.1,55.1c-1.1,0-2-0.8-2-1.7s0.9-1.7,2-1.7s2,0.8,2,1.7c0,0.5,0.4,0.9,0.9,0.9s0.9-0.4,0.9-0.9
	c0-1.7-1.2-3-2.9-3.4v-0.5c0-0.5-0.4-0.9-0.9-0.9s-0.9,0.4-0.9,0.9V50c-1.7,0.4-2.9,1.8-2.9,3.4c0,1.9,1.7,3.5,3.8,3.5
	c1.1,0,2,0.8,2,1.7s-0.9,1.7-2,1.7s-2-0.8-2-1.7c0-0.5-0.4-0.9-0.9-0.9s-0.9,0.4-0.9,0.9c0,1.7,1.2,3,2.9,3.4v0.4
	c0,0.5,0.4,0.9,0.9,0.9s0.9-0.4,0.9-0.9V62c1.7-0.4,2.9-1.8,2.9-3.4C60.9,56.7,59.2,55.1,57.1,55.1"/>
<path class="st1" d="M67,49.8c-1.2-1.8-2.8-3.3-4.8-4.3c-0.4-0.2-1,0-1.2,0.4s0,1,0.4,1.2c3.4,1.6,5.6,5.2,5.6,9
	c0,1.6-0.4,3.2-1.2,4.7c-0.2,0.4-0.1,1,0.4,1.2c0.1,0.1,0.3,0.1,0.4,0.1c0.3,0,0.6-0.2,0.8-0.5c0.9-1.7,1.4-3.6,1.4-5.5
	C68.9,53.8,68.2,51.6,67,49.8"/>
<path class="st1" d="M58.5,44.4L58.5,44.4c-0.6,0-1,0.4-1,0.9s0.4,0.9,0.9,0.9h0.1l0,0c0.5,0,0.9-0.4,0.9-0.9S59,44.4,58.5,44.4"/>
<path class="st1" d="M52.8,65c-3.4-1.6-5.6-5.2-5.6-9c0-1.6,0.4-3.2,1.2-4.7c0.2-0.4,0.1-1-0.4-1.2c-0.4-0.2-1-0.1-1.2,0.4
	c-0.9,1.7-1.4,3.6-1.4,5.5c0,2.3,0.6,4.4,1.9,6.3c1.2,1.8,2.8,3.3,4.8,4.3c0.1,0.1,0.3,0.1,0.4,0.1c0.3,0,0.7-0.2,0.8-0.5
	C53.5,65.8,53.3,65.3,52.8,65"/>
<path class="st1" d="M55.8,66L55.8,66c-0.6,0-1,0.4-1,0.9s0.4,0.9,0.9,0.9h0.1c0.5,0,0.9-0.4,0.9-0.9S56.3,66,55.8,66"/>
<path class="st1" d="M61.2,41.3c-0.1-0.3-0.2-0.5-0.4-0.7h2.3c2.3,0,4.2-1.9,4.2-4.2s-1.9-4.2-4.2-4.2h-7.2c0.5-0.7,0.7-1.5,0.7-2.3
	c0-2.3-1.9-4.2-4.2-4.2h-22c-2.3,0-4.2,1.9-4.2,4.2s1.9,4.2,4.2,4.2h7.2c-0.5,0.7-0.7,1.5-0.7,2.3s0.3,1.7,0.7,2.3h-2.4
	c-2.3,0-4.2,1.9-4.2,4.2c0,1.3,0.6,2.5,1.6,3.2c-1,0.8-1.6,1.9-1.6,3.2s0.6,2.5,1.6,3.2c-1,0.8-1.6,1.9-1.6,3.2s0.6,2.5,1.6,3.2
	c-1,0.8-1.6,1.9-1.6,3.2c0,2.3,1.9,4.2,4.2,4.2h10.6c2.8,3,6.8,4.9,11.2,4.9c8.5,0,15.3-6.9,15.3-15.3C72.5,49,67.7,43.1,61.2,41.3
	 M63.2,34.1c1.3,0,2.3,1.1,2.3,2.3c0,1.3-1.1,2.3-2.3,2.3h-5.8H41.1c-1.3,0-2.3-1.1-2.3-2.3c0-1.3,1.1-2.3,2.3-2.3H63.2z M30.4,32.3
	c-1.3,0-2.3-1.1-2.3-2.3c0-1.3,1.1-2.3,2.3-2.3h22.1c1.3,0,2.3,1.1,2.3,2.3c0,1.3-1.1,2.3-2.3,2.3H30.4z M35.3,40.6h22.1
	c0.4,0,0.7,0.1,1,0.2c-0.4,0-0.9-0.1-1.3-0.1c-4.2,0-8.1,1.7-10.9,4.5h-11c-1.3,0-2.3-1.1-2.3-2.3C32.9,41.6,34,40.6,35.3,40.6
	 M35.3,47.1h9.4c-1,1.4-1.8,3-2.3,4.7h-7.1c-1.3,0-2.3-1.1-2.3-2.3C32.9,48.1,34,47.1,35.3,47.1 M35.3,53.6H42
	c-0.1,0.8-0.2,1.7-0.2,2.5c0,0.7,0.1,1.5,0.2,2.2h-6.7C34,58.3,33,57.2,33,56C32.9,54.6,34,53.6,35.3,53.6 M35.3,64.8
	c-1.3,0-2.3-1.1-2.3-2.3c0-1.3,1.1-2.3,2.3-2.3h7c0.5,1.7,1.2,3.3,2.2,4.7L35.3,64.8L35.3,64.8z M57.1,69.6
	c-7.5,0-13.5-6.1-13.5-13.5c0-7.5,6.1-13.5,13.5-13.5c7.5,0,13.5,6.1,13.5,13.5C70.7,63.6,64.6,69.6,57.1,69.6"/>
</svg>
