<?xml version="1.0" encoding="utf-8"?>
<!-- Generator: Adobe Illustrator 22.0.0, SVG Export Plug-In . SVG Version: 6.00 Build 0)  -->
<svg version="1.1" id="Layer_1" xmlns="http://www.w3.org/2000/svg" xmlns:xlink="http://www.w3.org/1999/xlink" x="0px" y="0px"
	 viewBox="0 0 68.4 68.5" style="enable-background:new 0 0 68.4 68.5;" xml:space="preserve">
<style type="text/css">
	.st0{fill:#202633;}
</style>
<path class="st0" d="M60.3,13.4h2.1c0.7,0,1.3-0.6,1.3-1.3c0-0.7-0.6-1.3-1.3-1.3h-5c-0.7,0-1.3,0.6-1.3,1.3v5
	c0,0.7,0.6,1.3,1.3,1.3c0.7,0,1.3-0.6,1.3-1.3v-1.5c4,5.3,6.1,11.8,6.1,18.4C64.9,51,51,64.9,34,64.9C16.9,65,3.1,51.1,3.1,34.1
	S17,3.1,34,3.1c1.3,0,2.5,0.1,3.8,0.2c0.7,0.1,1.4-0.4,1.5-1.1s-0.4-1.4-1.1-1.5c-1.3-0.1-2.7-0.3-4.1-0.3c-9,0-17.4,3.5-23.7,9.8
	S0.6,25,0.6,34s3.5,17.4,9.8,23.7s14.7,9.8,23.7,9.8s17.4-3.5,23.7-9.8S67.6,43,67.6,34C67.5,26.5,65,19.3,60.3,13.4"/>
<path class="st0" d="M14.7,20.3c-0.6-0.4-1.4-0.2-1.8,0.4c-3,4.7-4.3,10.4-3.7,16c0.6,5.7,3.2,11,7.2,15.1
	c4.8,4.8,11.3,7.3,17.7,7.3s12.8-2.5,17.7-7.3c9.7-9.7,9.7-25.6,0-35.3c-4-4-9.4-6.6-15-7.2c-5.5-0.6-11.2,0.7-16,3.7
	c-0.6,0.4-0.8,1.2-0.4,1.8c0.4,0.6,1.2,0.8,1.8,0.4c8.9-5.6,20.3-4.3,27.7,3.2c8.7,8.7,8.7,22.9,0,31.6s-22.9,8.7-31.6,0
	c-7.4-7.4-8.6-19-3.1-27.8C15.5,21.5,15.3,20.7,14.7,20.3"/>
<path class="st0" d="M51,35.4h1.6c0.7,0,1.3-0.6,1.3-1.3c0-0.7-0.6-1.3-1.3-1.3H51c-0.7,0-1.3,0.6-1.3,1.3S50.3,35.4,51,35.4
	 M14.1,34.1c0,0.7,0.6,1.3,1.3,1.3H17c0.7,0,1.3-0.6,1.3-1.3c0-0.7-0.6-1.3-1.3-1.3h-1.6C14.7,32.7,14.1,33.3,14.1,34.1 M35.3,17.1
	v-1.6c0-0.7-0.6-1.3-1.3-1.3c-0.7,0-1.3,0.6-1.3,1.3v1.6c0,0.7,0.6,1.3,1.3,1.3C34.7,18.3,35.3,17.8,35.3,17.1 M32.6,51.1v1.6
	c0,0.7,0.6,1.3,1.3,1.3c0.7,0,1.3-0.6,1.3-1.3v-1.6c0-0.7-0.6-1.3-1.3-1.3C33.3,49.8,32.6,50.3,32.6,51.1 M27.5,25.6
	c-0.5-0.5-1.3-0.5-1.8,0c-0.5,0.5-0.5,1.3,0,1.8l4.4,4.4c-0.4,0.6-0.6,1.3-0.6,2.1c0,2.5,2,4.5,4.5,4.5s4.5-2,4.5-4.5
	c0-0.8-0.2-1.5-0.6-2.1l9-9c0.5-0.5,0.5-1.3,0-1.8c-0.5-0.5-1.3-0.5-1.8,0l-8.9,9c-0.6-0.4-1.3-0.6-2.1-0.6s-1.5,0.2-2.1,0.6
	C31.9,30.1,27.5,25.6,27.5,25.6z M35.9,34.1c0,1.1-0.8,1.9-1.9,1.9s-1.9-0.8-1.9-1.9c0-1.1,0.8-1.9,1.9-1.9S35.9,33,35.9,34.1
	 M18.2,18.2c0.2-0.2,0.4-0.6,0.4-0.9c0-0.4-0.1-0.7-0.4-0.9C18,16.2,17.6,16,17.3,16c-0.4,0-0.7,0.1-0.9,0.4
	c-0.2,0.2-0.4,0.6-0.4,0.9c0,0.4,0.1,0.7,0.4,0.9c0.2,0.2,0.6,0.4,0.9,0.4C17.6,18.6,17.9,18.5,18.2,18.2 M43.1,4.5
	c0.4,0,0.7-0.1,0.9-0.4c0.2-0.3,0.4-0.6,0.4-1S44.2,2.4,44,2.2c-0.2-0.2-0.6-0.4-0.9-0.4c-0.4,0-0.7,0.1-0.9,0.4
	c-0.2,0.2-0.4,0.6-0.4,0.9S42,3.8,42.2,4C42.4,4.3,42.7,4.5,43.1,4.5"/>
</svg>
