<svg viewBox="0 0 211 190" xmlns="http://www.w3.org/2000/svg"><path d="M149 29.8h-7.6l37.7 37.7c15.9 15.9 15.9 41.8 0 57.7L141.5 163h7.6c6.3 0 12.4-2.5 16.8-7l30.7-30.7c16-16 16-41.8 0-57.8l-30.7-30.7c-4.5-4.5-10.5-7-16.9-7" fill="#6ebf5b"/><path d="M96.2 5.7H27.4C6.2 5.7-4.4 31.3 10.6 46.3l39 39.1c6.1 6.1 6.1 15.9 0 22l-39 39.1c-15 15-4.4 40.6 16.8 40.6h68.8c13.6 0 26.6-5.4 36.2-15l46.8-46.8c15.9-16 15.9-41.8 0-57.8l-46.8-46.8c-9.6-9.6-22.6-15-36.2-15" fill="#d52627"/><path d="M92.3 29.8c-13.5 0-24.5 11-24.5 24.5l-.1 84.2c0 13.6 11 24.6 24.5 24.5v-.1l55.7-55.7c6-6 6-15.8 0-21.8L92.3 29.8z" fill="#f6c415"/></svg>