<?xml version="1.0" encoding="utf-8"?>
<!-- Generator: Adobe Illustrator 22.0.0, SVG Export Plug-In . SVG Version: 6.00 Build 0)  -->
<svg version="1.1" id="Layer_1" xmlns="http://www.w3.org/2000/svg" xmlns:xlink="http://www.w3.org/1999/xlink" x="0px" y="0px"
	 viewBox="0 0 289.5 378" style="enable-background:new 0 0 289.5 378;" xml:space="preserve">
<style type="text/css">
	.st0{fill:#FFFFFF;}
	.st1{fill:#FFFFFF;stroke:#A3B3CC;stroke-width:0.834;stroke-miterlimit:10;}
	.st2{fill:#202632;}
	.st3{fill:#F7C400;}
</style>
<path class="st0" d="M233.2,370.7H7V51.4h275.7v269.8C263.3,340.6,252.5,351.4,233.2,370.7"/>
<path class="st1" d="M233.2,370.7H7V51.4h275.7v269.8C263.3,340.6,252.5,351.4,233.2,370.7z"/>
<path class="st2" d="M233.8,370.7v-39c0-5.4,4.4-9.9,9.9-9.9h39L233.8,370.7z"/>
<g>
	<path class="st3" d="M188.9,52.2c0,24.5-19.9,44.4-44.4,44.4s-44.4-19.9-44.4-44.4c0-24.5,19.9-44.4,44.4-44.4
		S188.9,27.7,188.9,52.2"/>
	<path class="st0" d="M174.8,50.5c-0.2-0.3-0.5-0.4-0.8-0.4h-0.6c-2.6,0-5,1.2-6.5,3.2l-7.7,8.9c-0.8-1.2-2.1-2-3.7-2h-7.5
		c0.1-0.6,0.1-1.4,0.2-2.5c0.5-3.5,1.4-6.3,2.4-8.4c1.2,0.5,2.4,0.7,3.4,0.7c1.2,0,2.3-0.3,3.3-0.9c4.5-3,4.1-11.8,4.1-12.2
		c0-0.5-0.4-0.9-0.9-0.9c-5.3-0.3-9,0.9-10.9,3.5c-2.7,3.6-1,8.5-0.9,8.7c0,0.1,0.1,0.2,0.2,0.3c-0.2,0.5-0.5,1.1-0.7,1.7
		c-0.1-0.8-0.1-1.6-0.2-2.5c-0.5-4.7-1.7-8.6-3.5-11.7c1.5-3.4,1.6-6.2,0.1-8.4c-3.3-4.9-12.9-4.4-13.3-4.4c-0.5,0-0.9,0.4-0.9,0.9
		c-0.3,5.8,1,9.8,3.9,11.9c1.7,1.2,3.6,1.6,5.3,1.6c1.4,0,2.7-0.3,3.4-0.5c3.6,6.5,3.6,15.8,3.3,20.5c-0.1,0.8-0.2,1.7-0.2,2.6
		c-1.8-0.1-3.6-0.6-5.1-1.5c-2.3-1.4-5.9-3.3-10.4-4.3c-8-1.8-13.3,5.1-13.5,5.4c-0.1,0.2-0.2,0.4-0.2,0.6v9.2
		c0,0.5,0.4,0.9,0.9,0.9l2.9,0.3c3.5,0.4,6.9,1.2,10.2,2.7l8.9,3.9c1.9,0.8,3.9,1.2,5.9,1.2c1.9,0,3.7-0.3,5.5-1.1l7.1-2.9l1.2-0.3
		c3.7-0.9,6.8-3.5,8.3-7l7-15.8C175,51.1,174.9,50.8,174.8,50.5 M151.2,40.5c1.4-1.9,4.3-2.9,8.4-2.8c0,2.7-0.6,7.9-3.3,9.6
		c-1.2,0.8-2.8,0.8-4.7,0.1c2.1-3.5,4.3-4.8,4.4-4.9c0.5-0.3,0.6-0.8,0.4-1.3c-0.3-0.5-0.8-0.6-1.3-0.4c-0.2,0.1-2.6,1.5-4.8,5.1
		C150,44.6,149.9,42.3,151.2,40.5 M135.5,34.4c-2.2-1.6-3.2-4.8-3.2-9.4c3,0,8.8,0.6,10.8,3.5c0.9,1.4,1,3.2,0.2,5.4
		c-1.6-2.1-3.5-3.7-5.8-4.7c-0.5-0.2-1,0-1.2,0.5c-0.2,0.5,0,1,0.5,1.2c2.2,1,3.9,2.5,5.3,4.4C140.5,35.7,137.7,35.9,135.5,34.4
		 M166.1,66.5c-1.3,2.9-3.9,5.1-7,5.9l-1.3,0.3c0,0-0.1,0-0.1,0l-7.2,2.9c-3.2,1.3-6.8,1.2-10-0.1l-8.9-3.9c-3.4-1.5-7-2.4-10.7-2.8
		l-2.1-0.2v-8c0.9-1.1,5.3-5.8,11.4-4.4c4.3,0.9,7.7,2.7,9.8,4c1.9,1.2,4.2,1.8,6.6,1.8h8.9c1.3,0,2.4,1.1,2.4,2.4
		c0,1.3-1.1,2.4-2.4,2.4h-12.5c-1.8,0-3.6,0.3-5.4,0.9l0,0l0.3,0.9l0.3,0.9c1.5-0.5,3.1-0.8,4.8-0.8h12.5c2.4,0,4.3-1.9,4.3-4.3
		c0,0,0-0.1,0-0.1l8.5-9.8c1-1.3,2.5-2.2,4.1-2.4L166.1,66.5z"/>
</g>
</svg>
