<?xml version="1.0" encoding="utf-8"?>
<!-- Generator: Adobe Illustrator 22.0.0, SVG Export Plug-In . SVG Version: 6.00 Build 0)  -->
<svg version="1.1" id="Layer_1" xmlns="http://www.w3.org/2000/svg" xmlns:xlink="http://www.w3.org/1999/xlink" x="0px" y="0px"
	 viewBox="0 0 101.5 106" style="enable-background:new 0 0 101.5 106;" xml:space="preserve">
<style type="text/css">
	.st0{fill:#F7C400;}
	.st1{fill:#FFFFFF;}
</style>
<path class="st0" d="M95.2,51.2c0,24.5-19.9,44.4-44.4,44.4S6.4,75.7,6.4,51.2S26.3,6.8,50.8,6.8C75.3,6.8,95.2,26.7,95.2,51.2"/>
<path class="st1" d="M41,40.4c-0.4-0.4-1-0.4-1.4,0s-0.4,1,0,1.4s1,0.4,1.4,0S41.4,40.8,41,40.4"/>
<path class="st1" d="M54.5,67.7c0.4-0.6,0.7-1.3,0.7-2.1c0-1.9-1.6-3.5-3.5-3.5h-17c-0.9,0-1.8,0.4-2.5,1c-0.7,0.7-1,1.5-1,2.5
	c0,0.8,0.3,1.5,0.7,2.1c-1.6,0.8-2.7,2.5-2.7,4.4v1c0,0.6,0.4,1,1,1h25.9c0.6,0,1-0.4,1-1v-1C57.2,70.2,56.1,68.5,54.5,67.7
	 M33.7,64.6c0.3-0.3,0.7-0.4,1.1-0.4h17c0.8,0,1.5,0.7,1.5,1.5c0,0.4-0.2,0.8-0.4,1.1c-0.3,0.3-0.7,0.4-1.1,0.4h-17
	c-0.8,0-1.5-0.7-1.5-1.5C33.2,65.2,33.4,64.8,33.7,64.6 M31.2,72.1c0-1.6,1.3-3,3-3h0.5h17h0.5c1.6,0,3,1.3,3,3H31.2z"/>
<path class="st1" d="M79.4,64.9c-0.3-0.5-0.7-1-1.2-1.4l-4.7-4.1c0-0.1-0.1-0.1-0.1-0.2c-0.1-0.1-0.2-0.1-0.3-0.2l-2.8-2.5
	L57.2,45.1c0.5-0.6,0.8-1.3,0.8-2.1s-0.3-1.6-0.9-2.1c-0.2-0.2-0.5-0.4-0.8-0.6l1.2-1.2c0.3,0.1,0.7,0.1,1,0.1c1,0,2-0.4,2.8-1.2
	s1.2-1.8,1.2-2.8c0-1.1-0.4-2.1-1.2-2.8l-8.5-8.5C52,23.1,51,22.7,50,22.7c-1.1,0-2.1,0.4-2.8,1.2c-1,1-1.4,2.5-1,3.9l-12,12
	c-0.3-0.1-0.7-0.1-1-0.1c-1.1,0-2.1,0.4-2.8,1.2c-1.6,1.6-1.6,4.1,0,5.6l8.5,8.5c0.8,0.8,1.8,1.2,2.8,1.2s2-0.4,2.8-1.2
	c1-1,1.4-2.5,1-3.9l1.2-1.2c0.1,0.3,0.3,0.6,0.6,0.8c0.6,0.6,1.3,0.9,2.1,0.9s1.5-0.3,2.1-0.8l13.9,16c0,0.1,0.1,0.1,0.1,0.2
	c0,0,0,0,0.1,0l4.1,4.8c0.1,0.1,0.2,0.2,0.3,0.4c1.1,1.1,2.6,1.8,4.2,1.8c0.3,0,0.6,0,0.8-0.1c1.9-0.3,3.5-1.4,4.5-3.1
	C80.6,69.1,80.6,66.7,79.4,64.9 M48.7,25.6c0.4-0.4,0.9-0.6,1.4-0.6s1,0.2,1.4,0.6l8.5,8.5c0.4,0.4,0.6,0.9,0.6,1.4s-0.2,1-0.6,1.4
	c-0.8,0.8-2,0.8-2.8,0l-8.5-8.5l0,0C48,27.6,48,26.4,48.7,25.6 M43.1,53.8c-0.8,0.8-2,0.8-2.8,0l-8.5-8.5c-0.8-0.8-0.8-2,0-2.8
	c0.4-0.4,0.9-0.6,1.4-0.6s1,0.2,1.4,0.6l8.5,8.5C43.9,51.8,43.9,53,43.1,53.8 M47.3,46.8l-2.8,2.8L36,41.1l11.3-11.3l8.5,8.5
	L53,41.1l0,0L47.3,46.8L47.3,46.8 M50.9,48.9L50.9,48.9l-0.7,0.7c-0.2,0.2-0.4,0.3-0.7,0.3s-0.5-0.1-0.7-0.3s-0.3-0.4-0.3-0.7
	s0.1-0.5,0.3-0.7l5.7-5.7c0.4-0.4,1-0.4,1.4,0c0.2,0.2,0.3,0.4,0.3,0.7s-0.1,0.5-0.3,0.7l-0.7,0.7l0,0L50.9,48.9z M52.9,49.6
	l2.9-2.9l12.3,10.8L63.6,62L52.9,49.6z M65,63.5l4.7-4.7l1.5,1.3L66.3,65L65,63.5z M77.9,70c-0.6,1.2-1.7,1.9-3,2.1
	s-2.5-0.2-3.4-1.1c-0.1-0.1-0.2-0.2-0.2-0.2l0,0l-3.6-4.2l5.1-5.1l4.2,3.6l0,0c0.3,0.3,0.6,0.6,0.8,0.9C78.5,67.2,78.5,68.8,77.9,70
	"/>
<path class="st1" d="M48,33.4c-0.4-0.4-1-0.4-1.4,0l-4.2,4.2c-0.4,0.4-0.4,1,0,1.4c0.2,0.2,0.5,0.3,0.7,0.3c0.3,0,0.5-0.1,0.7-0.3
	l4.2-4.2C48.4,34.4,48.4,33.7,48,33.4"/>
</svg>
