<?xml version="1.0" encoding="utf-8"?>
<!-- Generator: Adobe Illustrator 22.0.0, SVG Export Plug-In . SVG Version: 6.00 Build 0)  -->
<svg version="1.1" id="Layer_1" xmlns="http://www.w3.org/2000/svg" xmlns:xlink="http://www.w3.org/1999/xlink" x="0px" y="0px"
	 viewBox="0 0 289.5 378" style="enable-background:new 0 0 289.5 378;" xml:space="preserve">
<style type="text/css">
	.st0{fill:#FFFFFF;}
	.st1{fill:#FFFFFF;stroke:#A3B3CC;stroke-width:0.834;stroke-miterlimit:10;}
	.st2{fill:#202632;}
	.st3{fill:#F7C400;}
</style>
<path class="st0" d="M233.2,370.7H7V51.4h275.7v269.8C263.3,340.6,252.5,351.4,233.2,370.7"/>
<path class="st1" d="M233.2,370.7H7V51.4h275.7v269.8C263.3,340.6,252.5,351.4,233.2,370.7z"/>
<path class="st2" d="M233.8,370.7v-39c0-5.4,4.4-9.9,9.9-9.9h39L233.8,370.7z"/>
<path class="st3" d="M189.2,51.2c0,24.5-19.9,44.4-44.4,44.4c-24.5,0-44.4-19.9-44.4-44.4c0-24.5,19.9-44.4,44.4-44.4
	C169.3,6.8,189.2,26.7,189.2,51.2"/>
<path class="st0" d="M135,40.4c-0.4-0.4-1-0.4-1.4,0c-0.4,0.4-0.4,1,0,1.4c0.4,0.4,1,0.4,1.4,0C135.4,41.4,135.4,40.8,135,40.4"/>
<path class="st0" d="M148.5,67.7c0.4-0.6,0.7-1.3,0.7-2.1c0-1.9-1.6-3.5-3.5-3.5h-17c-0.9,0-1.8,0.4-2.5,1c-0.7,0.7-1,1.5-1,2.5
	c0,0.8,0.3,1.5,0.7,2.1c-1.6,0.8-2.7,2.5-2.7,4.4v1c0,0.6,0.4,1,1,1h25.9c0.6,0,1-0.4,1-1v-1C151.2,70.2,150.1,68.5,148.5,67.7
	 M127.7,64.6c0.3-0.3,0.7-0.4,1.1-0.4h17c0.8,0,1.5,0.7,1.5,1.5c0,0.4-0.2,0.8-0.4,1.1c-0.3,0.3-0.7,0.4-1.1,0.4h-17
	c-0.8,0-1.5-0.7-1.5-1.5C127.2,65.2,127.4,64.8,127.7,64.6 M125.2,72.1c0-1.6,1.3-3,3-3h0.5h17h0.5c1.6,0,3,1.3,3,3H125.2z"/>
<path class="st0" d="M173.4,64.9c-0.3-0.5-0.7-1-1.2-1.4l-4.7-4.1c0-0.1-0.1-0.1-0.1-0.2c-0.1-0.1-0.2-0.1-0.3-0.2l-2.8-2.5
	l-13.1-11.4c0.5-0.6,0.8-1.3,0.8-2.1c0-0.8-0.3-1.6-0.9-2.1c-0.2-0.2-0.5-0.4-0.8-0.6l1.2-1.2c0.3,0.1,0.7,0.1,1,0.1
	c1,0,2-0.4,2.8-1.2c0.8-0.8,1.2-1.8,1.2-2.8c0-1.1-0.4-2.1-1.2-2.8l-8.5-8.5c-0.8-0.8-1.8-1.2-2.8-1.2c-1.1,0-2.1,0.4-2.8,1.2
	c-1,1-1.4,2.5-1,3.9l-12,12c-0.3-0.1-0.7-0.1-1-0.1c-1.1,0-2.1,0.4-2.8,1.2c-1.6,1.6-1.6,4.1,0,5.6l8.5,8.5c0.8,0.8,1.8,1.2,2.8,1.2
	c1,0,2-0.4,2.8-1.2c1-1,1.4-2.5,1-3.9l1.2-1.2c0.1,0.3,0.3,0.6,0.6,0.8c0.6,0.6,1.3,0.9,2.1,0.9c0.8,0,1.5-0.3,2.1-0.8l13.9,16
	c0,0.1,0.1,0.1,0.1,0.2c0,0,0,0,0.1,0l4.1,4.8c0.1,0.1,0.2,0.2,0.3,0.4c1.1,1.1,2.6,1.8,4.2,1.8c0.3,0,0.6,0,0.8-0.1
	c1.9-0.3,3.5-1.4,4.5-3.1C174.6,69.1,174.6,66.7,173.4,64.9 M142.7,25.6c0.4-0.4,0.9-0.6,1.4-0.6s1,0.2,1.4,0.6l8.5,8.5
	c0.4,0.4,0.6,0.9,0.6,1.4c0,0.5-0.2,1-0.6,1.4c-0.8,0.8-2,0.8-2.8,0l-8.5-8.5v0C142,27.6,142,26.4,142.7,25.6 M137.1,53.8
	c-0.8,0.8-2,0.8-2.8,0l-8.5-8.5c-0.8-0.8-0.8-2,0-2.8c0.4-0.4,0.9-0.6,1.4-0.6s1,0.2,1.4,0.6l8.5,8.5
	C137.9,51.8,137.9,53,137.1,53.8 M141.3,46.8l-2.8,2.8l-8.5-8.5l11.3-11.3l8.5,8.5l-2.8,2.8c0,0,0,0,0,0L141.3,46.8
	C141.3,46.8,141.3,46.8,141.3,46.8 M144.9,48.9L144.9,48.9l-0.7,0.7c-0.2,0.2-0.4,0.3-0.7,0.3c-0.3,0-0.5-0.1-0.7-0.3
	c-0.2-0.2-0.3-0.4-0.3-0.7c0-0.3,0.1-0.5,0.3-0.7l5.7-5.7c0.4-0.4,1-0.4,1.4,0c0.2,0.2,0.3,0.4,0.3,0.7c0,0.3-0.1,0.5-0.3,0.7
	l-0.7,0.7c0,0,0,0,0,0L144.9,48.9z M146.9,49.6l2.9-2.9l12.3,10.8l-4.5,4.5L146.9,49.6z M159,63.5l4.7-4.7l1.5,1.3l-4.9,4.9
	L159,63.5z M171.9,70c-0.6,1.2-1.7,1.9-3,2.1c-1.3,0.2-2.5-0.2-3.4-1.1c-0.1-0.1-0.2-0.2-0.2-0.2c0,0,0,0,0,0l-3.6-4.2l5.1-5.1
	l4.2,3.6c0,0,0,0,0,0c0.3,0.3,0.6,0.6,0.8,0.9C172.5,67.2,172.5,68.8,171.9,70"/>
<path class="st0" d="M142,33.4c-0.4-0.4-1-0.4-1.4,0l-4.2,4.2c-0.4,0.4-0.4,1,0,1.4c0.2,0.2,0.5,0.3,0.7,0.3c0.3,0,0.5-0.1,0.7-0.3
	l4.2-4.2C142.4,34.4,142.4,33.7,142,33.4"/>
</svg>
