<?xml version="1.0" encoding="utf-8"?>
<!-- Generator: Adobe Illustrator 22.0.0, SVG Export Plug-In . SVG Version: 6.00 Build 0)  -->
<svg version="1.1" id="Layer_1" xmlns="http://www.w3.org/2000/svg" xmlns:xlink="http://www.w3.org/1999/xlink" x="0px" y="0px"
	 viewBox="0 0 66.1 16.4" style="enable-background:new 0 0 66.1 16.4;" xml:space="preserve">
<style type="text/css">
	.st0{fill:#FFFFFF;}
</style>
<path class="st0" d="M24.8,1.3c-3.9,0-7.1,3.2-7.1,7.1s3.2,7.1,7.1,7.1s7.1-3.2,7.1-7.1S28.7,1.3,24.8,1.3 M28.8,6.8V7
	c0,2.7-2.1,5.8-5.8,5.8c-1.2,0-2.3-0.3-3.1-0.9c0.1,0,0.3,0,0.5,0c1,0,1.9-0.3,2.5-0.9c-0.9,0-1.7-0.6-1.9-1.4c0.1,0,0.2,0,0.4,0
	c0.2,0,0.4,0,0.5,0c-0.9-0.2-1.6-1-1.6-2v0c0.3,0.1,0.6,0.2,0.9,0.2c-0.5-0.3-0.9-1-0.9-1.7c0-0.4,0.1-0.7,0.3-1
	c1,1.2,2.5,2.1,4.2,2.2c0-0.1,0-0.3,0-0.5c0-1.1,0.9-2.1,2.1-2.1c0.6,0,1.1,0.2,1.5,0.6c0.5-0.1,0.9-0.2,1.3-0.5
	c-0.1,0.5-0.5,0.9-0.9,1.1c0.4,0,0.8-0.1,1.2-0.3C29.6,6.1,29.2,6.5,28.8,6.8 M8.1,1.3C4.2,1.3,1,4.5,1,8.4c0,3.4,2.4,6.3,5.6,6.9
	V10H4.9v-2h1.7V6.7c0-1.7,1-2.6,2.5-2.6c0.7,0,1.3,0,1.5,0.1v1.8h-1c-0.8,0-1,0.4-1,0.9v1.2h2l-0.2,2H8.6v5.4
	c3.7-0.3,6.6-3.3,6.6-7.1C15.2,4.5,12,1.3,8.1,1.3 M56.7,10.2L60,8.4l-3.3-1.7V10.2z"/>
<path class="st0" d="M58.2,1.3c-3.9,0-7.1,3.2-7.1,7.1s3.2,7.1,7.1,7.1s7.1-3.2,7.1-7.1S62.1,1.3,58.2,1.3 M63,9.9
	c0,0.5-0.2,1.5-1.3,1.6c-1.1,0.1-2.7,0.1-3.5,0.1s-2.4,0-3.5-0.1s-1.2-1.1-1.3-1.6c0-0.5,0-1.5,0-1.5s0-1,0-1.5
	c0-0.5,0.2-1.5,1.3-1.6c1.1-0.1,2.7-0.1,3.5-0.1s2.4,0,3.5,0.1c1.1,0.1,1.2,1.1,1.3,1.6c0,0.5,0,1.5,0,1.5S63,9.4,63,9.9"/>
<path class="st0" d="M41.5,7c-0.8,0-1.4,0.6-1.5,1.4c0,0.8,0.6,1.4,1.4,1.4s1.4-0.6,1.4-1.4C42.9,7.6,42.3,7,41.5,7"/>
<path class="st0" d="M43.3,4.9c-1.1,0-2.1,0-3.2,0c-0.3,0-0.6,0-1,0.1c-0.7,0.1-1.2,0.7-1.2,1.5c0,1.3,0,2.5,0,3.8
	c0,1,0.6,1.6,1.6,1.6h3.7c0.5,0,0.9-0.1,1.2-0.5c0.2-0.3,0.4-0.7,0.4-1.1c0-1.2,0-2.4,0-3.7C44.9,5.5,44.4,4.9,43.3,4.9 M41.5,10.6
	c-1.2,0-2.2-1-2.2-2.2s1-2.2,2.2-2.2c1.2,0,2.2,1,2.2,2.3C43.7,9.6,42.7,10.6,41.5,10.6 M43.8,6.6c-0.3,0-0.5-0.2-0.5-0.5
	c0-0.3,0.2-0.5,0.5-0.5s0.5,0.2,0.5,0.5C44.3,6.4,44.1,6.6,43.8,6.6"/>
<path class="st0" d="M41.5,1.3c-3.9,0-7.1,3.2-7.1,7.1s3.2,7.1,7.1,7.1s7.1-3.2,7.1-7.1C48.6,4.5,45.4,1.3,41.5,1.3 M45.8,10
	c0,0.1,0,0.2,0,0.4c0,1.1-0.7,1.9-1.8,2.2c-0.2,0-0.5,0.1-0.8,0.1h-3.3c-0.1,0-0.2,0-0.3,0c-1.1,0-2-0.8-2.2-1.9
	c0-0.2,0-0.4-0.1-0.7V6.7c0-0.1,0-0.2,0-0.3c0-1.1,0.8-2,1.9-2.2c0.2,0,0.4,0,0.7-0.1h3.4c0.1,0,0.2,0,0.3,0c1.1,0,1.9,0.7,2.2,1.8
	c0,0.2,0.1,0.5,0.1,0.8L45.8,10L45.8,10z"/>
</svg>
