<?xml version="1.0" encoding="utf-8"?>
<!-- Generator: Adobe Illustrator 22.0.0, SVG Export Plug-In . SVG Version: 6.00 Build 0)  -->
<svg version="1.1" id="Layer_1" xmlns="http://www.w3.org/2000/svg" xmlns:xlink="http://www.w3.org/1999/xlink" x="0px" y="0px"
	 viewBox="0 0 289.5 378" style="enable-background:new 0 0 289.5 378;" xml:space="preserve">
<style type="text/css">
	.st0{fill:#FFFFFF;}
	.st1{fill:#FFFFFF;stroke:#A3B3CC;stroke-width:0.834;stroke-miterlimit:10;}
	.st2{fill:#202632;}
	.st3{fill:#F7C400;}
</style>
<path class="st0" d="M233.2,370.7H7V51.4h275.7v269.8C263.3,340.6,252.5,351.4,233.2,370.7"/>
<path class="st1" d="M233.2,370.7H7V51.4h275.7v269.8C263.3,340.6,252.5,351.4,233.2,370.7z"/>
<path class="st2" d="M233.8,370.7v-39c0-5.4,4.4-9.9,9.9-9.9h39L233.8,370.7z"/>
<path class="st0" d="M135,40.4c-0.4-0.4-1-0.4-1.4,0c-0.4,0.4-0.4,1,0,1.4c0.4,0.4,1,0.4,1.4,0C135.4,41.4,135.4,40.8,135,40.4"/>
<path class="st0" d="M148.5,67.7c0.4-0.6,0.7-1.3,0.7-2.1c0-1.9-1.6-3.5-3.5-3.5h-17c-0.9,0-1.8,0.4-2.5,1c-0.7,0.7-1,1.5-1,2.5
	c0,0.8,0.3,1.5,0.7,2.1c-1.6,0.8-2.7,2.5-2.7,4.4v1c0,0.6,0.4,1,1,1h25.9c0.6,0,1-0.4,1-1v-1C151.2,70.2,150.1,68.5,148.5,67.7
	 M127.7,64.6c0.3-0.3,0.7-0.4,1.1-0.4h17c0.8,0,1.5,0.7,1.5,1.5c0,0.4-0.2,0.8-0.4,1.1c-0.3,0.3-0.7,0.4-1.1,0.4h-17
	c-0.8,0-1.5-0.7-1.5-1.5C127.2,65.2,127.4,64.8,127.7,64.6 M125.2,72.1c0-1.6,1.3-3,3-3h0.5h17h0.5c1.6,0,3,1.3,3,3H125.2z"/>
<path class="st3" d="M188.6,52.2c0,24.5-19.9,44.4-44.4,44.4c-24.5,0-44.4-19.9-44.4-44.4c0-24.5,19.9-44.4,44.4-44.4
	C168.7,7.8,188.6,27.7,188.6,52.2"/>
<path class="st0" d="M138.9,41.1c-2.8,0-5,2.2-5,5s2.2,5,5,5s5-2.2,5-5C143.8,43.3,141.6,41.1,138.9,41.1 M138.9,49.1
	c-1.7,0-3-1.3-3-3c0-1.7,1.3-3,3-3c1.6,0,3,1.3,3,3C141.8,47.7,140.5,49.1,138.9,49.1"/>
<path class="st0" d="M135.9,53.5c0.3-0.5,0.1-1.1-0.4-1.4c-3.4-1.9-4.6-6.1-2.7-9.5c1.9-3.4,6.1-4.6,9.5-2.7c0,0,0.1,0,0.1,0.1
	c0.5,0.3,1.1,0.1,1.4-0.4c0.3-0.5,0.1-1.1-0.4-1.4c-4.3-2.5-9.8-1-12.2,3.3c-2.5,4.3-1,9.8,3.3,12.2l0.1,0
	C135,54.2,135.6,54,135.9,53.5L135.9,53.5z"/>
<path class="st0" d="M141.5,52.5c-0.6,0.2-1.1,0.4-1.7,0.5c-0.5,0.1-0.9,0.6-0.9,1.1c0.1,0.5,0.6,0.9,1.1,0.9c0,0,0,0,0,0
	c0.8-0.1,1.5-0.3,2.2-0.6c0.5-0.2,0.8-0.8,0.6-1.3C142.6,52.6,142,52.3,141.5,52.5C141.5,52.5,141.5,52.5,141.5,52.5"/>
<path class="st0" d="M118.8,65.4c0,2.7,2.2,5,5,5h15.9c0,0,0.1,0,0.1,0l0.5,0.1c5,1.3,10.2,1.9,15.3,1.9c5.2,0,10.3-0.6,15.3-1.9
	l0.8-0.2c0.4-0.1,0.8-0.5,0.8-1v-2c0-0.4-0.2-0.7-0.5-0.9l-1.4-0.7v-3.4c0-5.9-3.5-11.3-9-13.7v-2.2c0-0.5-0.3-0.9-0.8-1
	c-3-0.6-6.1-0.7-9.1-0.2c0-0.1,0-0.1,0-0.2l3.5-2.6c0.4-0.3,0.5-0.9,0.3-1.3l-4-6.9c-0.3-0.4-0.8-0.6-1.2-0.4l-4,1.7
	c-0.6-0.4-1.2-0.8-1.9-1.1l-0.5-4.3c-0.1-0.5-0.5-0.9-1-0.9h-8c-0.5,0-0.9,0.4-1,0.9l-0.5,4.3c-0.7,0.3-1.3,0.7-1.9,1.1l-4-1.7
	c-0.5-0.2-1,0-1.2,0.4l-4,6.9c-0.3,0.4-0.1,1,0.3,1.3L126,45c0,0.4,0,0.7,0,1.1c0,0.4,0,0.7,0,1.1l-3.5,2.6
	c-0.4,0.3-0.5,0.9-0.3,1.3l4,6.9c0.3,0.4,0.8,0.6,1.2,0.4l4-1.7c0.6,0.4,1.2,0.8,1.9,1.1l0.3,2.6h-9.9
	C121,60.4,118.8,62.6,118.8,65.4 M170.6,67.9v0.6l-0.1,0c-9.8,2.4-20,2.4-29.7,0l-0.1,0v-0.6l1.2-0.6h27.4L170.6,67.9z M146.7,59.3
	c0.5,0,1-0.4,1-1v-6.2c0.6-0.5,1.3-0.9,2-1.3v9.9l-7,3.9v-2.3c0-2.7,0.8-5.2,2.3-7.4c0.2-0.3,0.4-0.6,0.7-0.9v4.3
	C145.7,58.9,146.2,59.3,146.7,59.3 M161.6,50.8c0.7,0.4,1.4,0.8,2,1.3v5.2c0,0.5,0.4,1,1,1s1-0.4,1-1V54c0.2,0.3,0.4,0.6,0.7,0.9
	c1.5,2.2,2.3,4.8,2.3,7.4v2.3l-7-3.9V50.8z M159.6,47.2v14.1c0,0.4,0.2,0.7,0.5,0.9l5.6,3.1h-20.2l5.6-3.1c0.3-0.2,0.5-0.5,0.5-0.9
	V47.2C154.3,46.8,157,46.8,159.6,47.2z M132.2,54.8c-0.3-0.2-0.7-0.3-1-0.1l-3.7,1.6l-3.1-5.4l3.2-2.5c0.3-0.2,0.4-0.6,0.4-0.9
	c-0.1-0.9-0.1-1.9,0-2.8c0-0.4-0.1-0.7-0.4-0.9l-3.2-2.4l3.1-5.4l3.7,1.6c0.3,0.1,0.7,0.1,1-0.1c0.7-0.6,1.6-1,2.4-1.4
	c0.3-0.1,0.6-0.4,0.6-0.8l0.5-4h6.2l0.5,4c0,0.4,0.3,0.7,0.6,0.8c0.9,0.4,1.7,0.8,2.4,1.4c0.3,0.2,0.7,0.3,1,0.1l3.7-1.6l3.1,5.4
	l-3.2,2.5c-0.3,0.2-0.4,0.6-0.4,0.9c0.1,0.4,0.1,0.8,0.1,1.2c-0.1,0.1-0.1,0.3-0.1,0.5v2.2c-4.8,2.1-8.2,6.6-8.8,11.8h-5.2l-0.4-3.4
	c0-0.4-0.3-0.7-0.6-0.8C133.8,55.8,133,55.4,132.2,54.8 M140.7,62.4v2h-12c-0.1-0.7-0.5-1.4-0.9-2H140.7z M127.7,66.4h11.7l-0.1,0
	c-0.3,0.2-0.6,0.5-0.6,0.9v1.1h-11.9C127.2,67.8,127.5,67.1,127.7,66.4 M126.6,64.4c-0.5,0.1-0.8,0.5-0.8,1c0,1.4-0.9,2.6-2.1,3
	c-1.6-0.1-2.9-1.5-2.8-3.1c0.1-1.6,1.5-2.9,3.1-2.8C125.2,62.5,126.2,63.2,126.6,64.4"/>
</svg>
