<?xml version="1.0" encoding="utf-8"?>
<!-- Generator: Adobe Illustrator 22.0.0, SVG Export Plug-In . SVG Version: 6.00 Build 0)  -->
<svg version="1.1" id="Layer_1" xmlns="http://www.w3.org/2000/svg" xmlns:xlink="http://www.w3.org/1999/xlink" x="0px" y="0px"
	 viewBox="0 0 105.5 106" style="enable-background:new 0 0 105.5 106;" xml:space="preserve">
<style type="text/css">
	.st0{fill:#FFFFFF;}
	.st1{fill:#F7C400;}
</style>
<path class="st0" d="M43,40.4c-0.4-0.4-1-0.4-1.4,0s-0.4,1,0,1.4s1,0.4,1.4,0S43.4,40.8,43,40.4"/>
<path class="st0" d="M56.5,67.7c0.4-0.6,0.7-1.3,0.7-2.1c0-1.9-1.6-3.5-3.5-3.5h-17c-0.9,0-1.8,0.4-2.5,1c-0.7,0.7-1,1.5-1,2.5
	c0,0.8,0.3,1.5,0.7,2.1c-1.6,0.8-2.7,2.5-2.7,4.4v1c0,0.6,0.4,1,1,1h25.9c0.6,0,1-0.4,1-1v-1C59.2,70.2,58.1,68.5,56.5,67.7
	 M35.7,64.6c0.3-0.3,0.7-0.4,1.1-0.4h17c0.8,0,1.5,0.7,1.5,1.5c0,0.4-0.2,0.8-0.4,1.1c-0.3,0.3-0.7,0.4-1.1,0.4h-17
	c-0.8,0-1.5-0.7-1.5-1.5C35.2,65.2,35.4,64.8,35.7,64.6 M33.2,72.1c0-1.6,1.3-3,3-3h0.5h17h0.5c1.6,0,3,1.3,3,3H33.2z"/>
<path class="st1" d="M96.6,52.2c0,24.5-19.9,44.4-44.4,44.4S7.8,76.7,7.8,52.2S27.7,7.8,52.2,7.8C76.7,7.8,96.6,27.7,96.6,52.2"/>
<path class="st0" d="M46.9,41.1c-2.8,0-5,2.2-5,5s2.2,5,5,5s5-2.2,5-5C51.8,43.3,49.6,41.1,46.9,41.1 M46.9,49.1c-1.7,0-3-1.3-3-3
	s1.3-3,3-3c1.6,0,3,1.3,3,3C49.8,47.7,48.5,49.1,46.9,49.1"/>
<path class="st0" d="M43.9,53.5c0.3-0.5,0.1-1.1-0.4-1.4c-3.4-1.9-4.6-6.1-2.7-9.5c1.9-3.4,6.1-4.6,9.5-2.7c0,0,0.1,0,0.1,0.1
	c0.5,0.3,1.1,0.1,1.4-0.4c0.3-0.5,0.1-1.1-0.4-1.4c-4.3-2.5-9.8-1-12.2,3.3c-2.5,4.3-1,9.8,3.3,12.2h0.1C43,54.2,43.6,54,43.9,53.5
	L43.9,53.5z"/>
<path class="st0" d="M49.5,52.5c-0.6,0.2-1.1,0.4-1.7,0.5c-0.5,0.1-0.9,0.6-0.9,1.1C47,54.6,47.5,55,48,55l0,0
	c0.8-0.1,1.5-0.3,2.2-0.6c0.5-0.2,0.8-0.8,0.6-1.3C50.6,52.6,50,52.3,49.5,52.5L49.5,52.5"/>
<path class="st0" d="M26.8,65.4c0,2.7,2.2,5,5,5h15.9h0.1l0.5,0.1c5,1.3,10.2,1.9,15.3,1.9c5.2,0,10.3-0.6,15.3-1.9l0.8-0.2
	c0.4-0.1,0.8-0.5,0.8-1v-2c0-0.4-0.2-0.7-0.5-0.9l-1.4-0.7v-3.4c0-5.9-3.5-11.3-9-13.7v-2.2c0-0.5-0.3-0.9-0.8-1
	c-3-0.6-6.1-0.7-9.1-0.2c0-0.1,0-0.1,0-0.2l3.5-2.6c0.4-0.3,0.5-0.9,0.3-1.3l-4-6.9c-0.3-0.4-0.8-0.6-1.2-0.4l-4,1.7
	c-0.6-0.4-1.2-0.8-1.9-1.1l-0.5-4.3c-0.1-0.5-0.5-0.9-1-0.9h-8c-0.5,0-0.9,0.4-1,0.9l-0.5,4.3c-0.7,0.3-1.3,0.7-1.9,1.1l-4-1.7
	c-0.5-0.2-1,0-1.2,0.4l-4,6.9c-0.3,0.4-0.1,1,0.3,1.3L34,45c0,0.4,0,0.7,0,1.1c0,0.4,0,0.7,0,1.1l-3.5,2.6c-0.4,0.3-0.5,0.9-0.3,1.3
	l4,6.9c0.3,0.4,0.8,0.6,1.2,0.4l4-1.7c0.6,0.4,1.2,0.8,1.9,1.1l0.3,2.6h-9.9C29,60.4,26.8,62.6,26.8,65.4 M78.6,67.9v0.6h-0.1
	c-9.8,2.4-20,2.4-29.7,0h-0.1v-0.6l1.2-0.6h27.4L78.6,67.9z M54.7,59.3c0.5,0,1-0.4,1-1v-6.2c0.6-0.5,1.3-0.9,2-1.3v9.9l-7,3.9v-2.3
	c0-2.7,0.8-5.2,2.3-7.4c0.2-0.3,0.4-0.6,0.7-0.9v4.3C53.7,58.9,54.2,59.3,54.7,59.3 M69.6,50.8c0.7,0.4,1.4,0.8,2,1.3v5.2
	c0,0.5,0.4,1,1,1s1-0.4,1-1V54c0.2,0.3,0.4,0.6,0.7,0.9c1.5,2.2,2.3,4.8,2.3,7.4v2.3l-7-3.9V50.8z M67.6,47.2v14.1
	c0,0.4,0.2,0.7,0.5,0.9l5.6,3.1H53.5l5.6-3.1c0.3-0.2,0.5-0.5,0.5-0.9V47.2C62.3,46.8,65,46.8,67.6,47.2z M40.2,54.8
	c-0.3-0.2-0.7-0.3-1-0.1l-3.7,1.6l-3.1-5.4l3.2-2.5c0.3-0.2,0.4-0.6,0.4-0.9c-0.1-0.9-0.1-1.9,0-2.8c0-0.4-0.1-0.7-0.4-0.9l-3.2-2.4
	l3.1-5.4l3.7,1.6c0.3,0.1,0.7,0.1,1-0.1c0.7-0.6,1.6-1,2.4-1.4c0.3-0.1,0.6-0.4,0.6-0.8l0.5-4h6.2l0.5,4c0,0.4,0.3,0.7,0.6,0.8
	c0.9,0.4,1.7,0.8,2.4,1.4c0.3,0.2,0.7,0.3,1,0.1l3.7-1.6l3.1,5.4L58,43.9c-0.3,0.2-0.4,0.6-0.4,0.9c0.1,0.4,0.1,0.8,0.1,1.2
	c-0.1,0.1-0.1,0.3-0.1,0.5v2.2c-4.8,2.1-8.2,6.6-8.8,11.8h-5.2l-0.4-3.4c0-0.4-0.3-0.7-0.6-0.8C41.8,55.8,41,55.4,40.2,54.8
	 M48.7,62.4v2h-12c-0.1-0.7-0.5-1.4-0.9-2H48.7z M35.7,66.4h11.7h-0.1c-0.3,0.2-0.6,0.5-0.6,0.9v1.1H34.8
	C35.2,67.8,35.5,67.1,35.7,66.4 M34.6,64.4c-0.5,0.1-0.8,0.5-0.8,1c0,1.4-0.9,2.6-2.1,3c-1.6-0.1-2.9-1.5-2.8-3.1s1.5-2.9,3.1-2.8
	C33.2,62.5,34.2,63.2,34.6,64.4"/>
</svg>
