<?xml version="1.0" encoding="utf-8"?>
<!-- Generator: Adobe Illustrator 22.0.0, SVG Export Plug-In . SVG Version: 6.00 Build 0)  -->
<svg version="1.1" id="Layer_1" xmlns="http://www.w3.org/2000/svg" xmlns:xlink="http://www.w3.org/1999/xlink" x="0px" y="0px"
	 viewBox="0 0 289.5 378" style="enable-background:new 0 0 289.5 378;" xml:space="preserve">
<style type="text/css">
	.st0{fill:#FFFFFF;}
	.st1{fill:#FFFFFF;stroke:#A3B3CC;stroke-width:0.834;stroke-miterlimit:10;}
	.st2{fill:#202632;}
	.st3{fill:#F7C400;}
</style>
<g>
	<path class="st0" d="M234.2,370.7H8V51.4h275.7v269.8C264.3,340.6,253.5,351.4,234.2,370.7"/>
	<path class="st1" d="M234.2,370.7H8V51.4h275.7v269.8C264.3,340.6,253.5,351.4,234.2,370.7z"/>
	<path class="st2" d="M234.8,370.7v-39c0-5.4,4.4-9.9,9.9-9.9h39L234.8,370.7z"/>
</g>
<g>
	<path class="st3" d="M189.4,50.7c0,24.5-19.9,44.4-44.4,44.4c-24.5,0-44.4-19.9-44.4-44.4c0-24.5,19.9-44.4,44.4-44.4
		C169.5,6.4,189.4,26.2,189.4,50.7"/>
	<path class="st0" d="M169.5,32.5H156c-0.5-4.5-4.9-8.7-9.4-8.7h-3.2c-4.5,0-8.9,4.2-9.4,8.7h-13.5c-1.3,0-2.4,1.1-2.4,2.4v2.4h1.6
		v-2.4c0-0.4,0.4-0.8,0.8-0.8h13.5c-0.1,2.2-0.7,4.3-1.3,6.1c-0.6,2.1-1.1,3.9-0.9,5.5c0.2,1.4,1.1,2.5,2.6,3.3
		c-2.5,1.2-5.1,2.9-5.1,6.3v4.9h-9.6V38.8h-1.6v27c0,1.3,1.1,2.4,2.4,2.4h20.6v2.2l-1.3,2.5H134c-1.3,0-2.4,1.1-2.4,2.4v2.4h26.8
		v-2.4c0-1.3-1.1-2.4-2.4-2.4h-5.8l-1.3-2.5v-2.2h13.5v-1.6h-42c-0.4,0-0.8-0.4-0.8-0.8v-3.9h50.6v3.9c0,0.4-0.4,0.8-0.8,0.8h-2.4
		v1.6h2.4c1.3,0,2.4-1.1,2.4-2.4V34.9C171.9,33.6,170.8,32.5,169.5,32.5 M156.8,75.3V76h-23.6v-0.8c0-0.4,0.4-0.8,0.8-0.8H156
		C156.5,74.5,156.8,74.8,156.8,75.3 M148.5,72.9h-6.9l1.1-2.2v-2.6h4.7v2.6L148.5,72.9z M134.2,40.7c0.6-2.2,1.4-4.6,1.4-7.4
		c0-3.9,4-7.9,7.9-7.9h3.2c3.9,0,7.9,4,7.9,7.9c0,2.8,0.7,5.2,1.4,7.4c1.1,3.9,1.8,6.1-2.1,7.5l-4.8-2v-1.3c2.4-1.4,3.9-3.9,3.9-6.8
		v-4l-2.8-1.4c-0.1-0.1-0.2-0.1-0.3-0.2c-1.4-0.7-2.3-1.2-2.4-2.2c0,0,0-0.1,0-0.1h-1.6c0,0,0,0.1,0,0.1c-0.1,1.3-1.3,2-2.5,2.2
		l-6.2,1V38c0,2.9,1.6,5.5,3.9,6.8v1.3l-4.8,2C132.4,46.7,133,44.5,134.2,40.7 M159.2,60.3h-13.4V53h1.4l1.5-5.2l4.7,2
		c3.3,1.4,5.8,2.7,5.8,5.6V60.3z M143.4,40.5l-4.7-2.9v-2.7l4.9-0.8l0,0c1.3-0.3,2.4-0.9,3.1-1.8c0.6,0.7,1.6,1.1,2.4,1.5
		c0.1,0.1,0.2,0.1,0.3,0.2l1.9,1v3c0,3.5-2.8,6.3-6.3,6.3c-3,0-5.4-2-6.1-4.8l4,2.5h3.4v-1.6L143.4,40.5L143.4,40.5z M142.6,45.5
		c0.7,0.2,1.5,0.4,2.4,0.4s1.6-0.1,2.4-0.4v1l-1.4,4.8h-2l-1.4-4.8V45.5z M130.8,55.4c0-2.9,2.5-4.2,5.8-5.6l4.7-2l1.5,5.2h1.4v7.3
		h-13.4V55.4z M160.8,60.3v-4.9c0-3.4-2.6-5.1-5.1-6.3c1.5-0.8,2.3-1.9,2.6-3.3c0.3-1.6-0.2-3.4-0.9-5.5c-0.5-1.8-1.1-3.9-1.3-6.1
		h13.5c0.4,0,0.8,0.4,0.8,0.8v25.4H160.8z"/>
	<rect x="164" y="66.6" class="st0" width="1.6" height="1.6"/>
	<rect x="144.2" y="63.4" class="st0" width="1.6" height="1.6"/>
	<rect x="167.2" y="38.8" class="st0" width="1.6" height="1.6"/>
	<rect x="167.2" y="35.7" class="st0" width="1.6" height="1.6"/>
</g>
</svg>
