<?xml version="1.0" encoding="utf-8"?>
<!-- Generator: Adobe Illustrator 22.0.0, SVG Export Plug-In . SVG Version: 6.00 Build 0)  -->
<svg version="1.1" id="Layer_1" xmlns="http://www.w3.org/2000/svg" xmlns:xlink="http://www.w3.org/1999/xlink" x="0px" y="0px"
	 viewBox="0 0 60.4 67.6" style="enable-background:new 0 0 60.4 67.6;" xml:space="preserve">
<style type="text/css">
	.st0{fill:#202633;}
</style>
<path class="st0" d="M36.4,23.4c3.6,1,5.7,4.6,4.8,8.3c-0.3,1-0.1,2.1,0.4,3c0.5,0.9,1.4,1.6,2.4,1.8c0.3,0.1,0.7,0.1,1,0.1
	c1.7,0,3.4-1.1,3.8-2.9c2.1-7.8-2.5-15.8-10.4-17.9c-2.1-0.6-4.3,0.7-4.8,2.8C33.1,20.7,34.3,22.9,36.4,23.4 M36.2,19.3
	c0.1-0.3,0.3-0.6,0.6-0.8c0.2-0.1,0.4-0.2,0.6-0.2c0.1,0,0.3,0,0.3,0.1c6.4,1.7,10.2,8.3,8.5,14.7c-0.2,0.7-0.9,1.1-1.6,1
	c-0.3-0.1-0.6-0.3-0.8-0.6c-0.2-0.3-0.3-0.6-0.1-1c1.3-5-1.7-10.1-6.6-11.5C36.4,20.7,36,20,36.2,19.3"/>
<path class="st0" d="M41.3,5.5c-2.1-0.6-4.3,0.7-4.8,2.8c-0.3,1-0.1,2.1,0.4,3c0.5,0.9,1.4,1.6,2.4,1.8c9.3,2.5,14.8,12,12.3,21.3
	c-0.3,1-0.1,2.1,0.4,3c0.5,0.9,1.4,1.6,2.4,1.8c0.3,0.1,0.7,0.1,1,0.1c1.7,0,3.4-1.1,3.8-2.9C62.8,23,54.8,9.1,41.3,5.5 M56.6,35.9
	c-0.2,0.7-0.9,1.1-1.6,1c-0.3-0.1-0.6-0.3-0.8-0.6c-0.2-0.3-0.3-0.6-0.1-1c2.9-10.7-3.5-21.7-14.2-24.6c-0.7-0.2-1.1-0.9-1-1.6
	c0.1-0.6,0.7-1,1.3-1c0.1,0,0.3,0,0.3,0.1C52.7,11.3,59.8,23.8,56.6,35.9 M45.6,45.8c-1.7-3.1-5.6-4.1-8.7-2.3l-5.3,3.1
	c-0.3,0.1-0.6,0.2-0.8,0.1c-0.3-0.1-0.5-0.3-0.6-0.5L18,25.4c-0.1-0.3-0.2-0.6-0.1-0.8c0.1-0.3,0.3-0.5,0.5-0.6l5.3-3.1
	c3.1-1.7,4.1-5.6,2.3-8.7l-5.2-9.1C19.2,0,15.3-1,12.3,0.8l-1.8,1.1C0.2,7.7-3.3,20.8,2.7,31l4.5,7.7c0.4,0.6,1.1,0.8,1.8,0.5
	c0.6-0.4,0.8-1.1,0.5-1.8l-4.5-7.7C0.7,22.4,2,13.4,7.6,7.5l8.6,15c-0.3,0.4-0.6,0.9-0.7,1.4c-0.3,1-0.1,2,0.4,2.8l12.1,20.9
	c0.5,0.9,1.3,1.5,2.3,1.7c0.5,0.1,1.1,0.2,1.6,0.1l8.4,14.9c-3,0.7-6.1,0.6-9.2-0.1c-4.8-1.3-8.9-4.4-11.4-8.7l-4.5-7.6
	c-0.4-0.6-1.1-0.8-1.8-0.5c-0.6,0.4-0.8,1.1-0.5,1.8l4.5,7.6c2.9,5,7.4,8.5,13,10c1.8,0.5,3.7,0.8,5.5,0.8c3.7,0,7.4-1,10.6-2.9
	l1.8-1.1c1.5-0.8,2.5-2.2,2.9-3.8c0.4-1.7,0.2-3.4-0.6-4.8C50.6,54.8,45.6,45.8,45.6,45.8z M11.8,4.1L13.6,3
	c0.8-0.5,1.8-0.6,2.8-0.4s1.8,0.9,2.2,1.7l5.2,9c1,1.8,0.4,4-1.3,5l-4.2,2.4L9.5,5.7C10.2,5.1,10.9,4.6,11.8,4.1 M48.8,58.9
	c-0.3,1-0.9,1.8-1.7,2.2l-1.8,1.1c-0.8,0.4-1.7,0.9-2.5,1.2L34,48.3l4.2-2.4c1.8-1,4-0.4,5.1,1.3l5.2,8.9
	C49,56.9,49.1,57.9,48.8,58.9"/>
<path class="st0" d="M11.2,41.9c-0.3,0-0.7,0.1-1,0.4c-0.3,0.3-0.4,0.6-0.4,1c0,0.3,0.1,0.7,0.4,1c0.3,0.3,0.6,0.4,1,0.4
	c0.3,0,0.7-0.1,1-0.4c0.3-0.3,0.4-0.6,0.4-1c0-0.3-0.1-0.7-0.4-1C11.9,42,11.5,41.9,11.2,41.9"/>
</svg>
