<?xml version="1.0" encoding="utf-8"?>
<!-- Generator: Adobe Illustrator 22.0.0, SVG Export Plug-In . SVG Version: 6.00 Build 0)  -->
<svg version="1.1" id="Layer_1" xmlns="http://www.w3.org/2000/svg" xmlns:xlink="http://www.w3.org/1999/xlink" x="0px" y="0px"
	 viewBox="0 0 102.5 109" style="enable-background:new 0 0 102.5 109;" xml:space="preserve">
<style type="text/css">
	.st0{fill:#F7C400;}
	.st1{fill:#FFFFFF;}
</style>
<g>
	<g>
		<path class="st0" d="M96,51.7c0,24.5-19.9,44.4-44.4,44.4S7.2,76.2,7.2,51.7S27.1,7.3,51.6,7.3C76.1,7.4,96,27.2,96,51.7"/>
		<path class="st1" d="M73.1,71.9V48.8h-1.5v-3.1H70v-4.6h-1.5V38H67v3.1h-1.5v4.6H64V28.6l-4.6,0.9v-2.3h-1.5v2.6l-1.5,0.3v-4.4
			h-1.5v4.8l-1.5,0.3v-3.5h-1.5v3.8L47.3,32v4.5H33.4V38h1.5v9.3c-0.3,0-0.5-0.1-0.8-0.1c-3,0-5.4,2.8-5.4,6.2c0,3.1,2,5.7,4.6,6.1
			v1c-0.6-0.6-1.4-0.9-2.3-0.9c-2.1,0-3.8,2.1-3.8,4.6c0,2.2,1.3,4.1,3.1,4.5v3.2h-3.1v1.5h47.7v-1.5C74.9,71.9,73.1,71.9,73.1,71.9
			z M39.2,71.1c0-1.3,1-2.3,2.3-2.3c0.8,0,1.6,0.4,2,1.2l0.2,0.4l0.8-0.1c0.2,0,0.5,0,0.7,0.1l0.7,0.3l0.2-0.8
			c0.5-1.6,2-2.7,3.7-2.7c1.4,0,2.7,0.8,3.4,2l0.5,0.9l0.7-0.7c0.9-0.8,2.3-0.8,3.2,0l0.7,0.7l0.5-0.9c0.7-1.2,2-2,3.4-2
			c1.7,0,3.1,1.1,3.7,2.7l0.2,0.7l0.7-0.2c1.5-0.3,3,0.3,3.9,1.4H39.3C39.3,71.6,39.2,71.4,39.2,71.1 M71.5,50.3v20.1
			c-0.4-0.5-1-0.8-1.5-1.1V51.9H59.2v14.8c-0.4,0.3-0.8,0.7-1.2,1.1c-0.1-0.1-0.3-0.1-0.4-0.2V50.3H71.5z M62.3,65.7
			c-0.5,0-1,0.1-1.5,0.2V53.4h3.1v12.5C63.4,65.8,62.8,65.7,62.3,65.7 M65.4,53.4h3.1v15.5c-0.4-0.1-0.8-0.1-1.3,0
			c-0.4-0.9-1-1.6-1.8-2.1V53.4z M59.2,47.2H70v1.5H59.2V47.2z M66.9,42.6h1.5v3.1h-1.5V42.6z M62.3,30.5v15.2h-4.6v3.1h-1.5v18.5
			c-0.7,0-1.3,0.2-1.9,0.5c-1-1.3-2.6-2.1-4.2-2.1c-0.5,0-1.1,0.1-1.5,0.2V33.2L62.3,30.5z M36.1,38h10.8v28.7
			c-0.8,0.5-1.4,1.3-1.8,2.1c-0.2,0-0.3,0-0.5,0c-0.7-1-1.9-1.5-3.1-1.5c-2.1,0-3.8,1.7-3.8,3.8c0,0.3,0,0.5,0.1,0.8h-3.2v-2.8
			l4.6-5.4v-1.9c2.6-0.4,4.6-3,4.6-6.1c0-2.3-1.1-4.3-2.8-5.4h1.2v-1.5h-1.5v1.4c-0.7-0.4-1.5-0.6-2.3-0.6c-0.1,0-0.3,0-0.4,0
			c-0.5-0.7-1.2-1.3-1.9-1.7L36.1,38L36.1,38z M39.2,53.4c0-0.8-0.1-1.6-0.4-2.3c1.9,0.2,3.5,2.2,3.5,4.6c0,2.5-1.7,4.6-3.8,4.6
			c-1,0-1.9-0.4-2.6-1.2C37.8,58.2,39.2,56,39.2,53.4 M34.6,60c0.8,1,1.9,1.6,3.1,1.8v1.3l-3.1,3.6V60z M30,53.4
			c0-2.5,1.7-4.6,3.8-4.6s3.8,2.1,3.8,4.6c0,2.2-1.3,4.1-3.1,4.5v-5.3H33v5.3C31.3,57.5,30,55.6,30,53.4 M28.4,64.2
			c0-1.7,1-3.1,2.3-3.1s2.3,1.4,2.3,3.1s-1,3.1-2.3,3.1S28.4,65.9,28.4,64.2 M31.5,68.7c0.6-0.1,1.1-0.4,1.5-0.8v4h-1.5V68.7z"/>
		<path class="st1" d="M54.6,34.9H50v6.2h4.6V34.9z M53.1,39.5h-1.5v-3.1h1.5V39.5z"/>
		<path class="st1" d="M54.6,42.6H50v6.2h4.6V42.6z M53.1,47.2h-1.5v-3.1h1.5V47.2z"/>
		<path class="st1" d="M54.6,50.3H50v6.2h4.6V50.3z M53.1,54.9h-1.5v-3.1h1.5V54.9z"/>
		<path class="st1" d="M54.6,58H50v6.2h4.6V58z M53.1,62.6h-1.5v-3.1h1.5V62.6z"/>
		<path class="st1" d="M60.8,34.9h-4.6v6.2h4.6V34.9z M59.2,39.5h-1.5v-3.1h1.5V39.5z"/>
		<rect x="37.7" y="39.5" class="st1" width="1.5" height="1.5"/>
		<rect x="40.8" y="39.5" class="st1" width="1.5" height="1.5"/>
		<rect x="43.8" y="39.5" class="st1" width="1.5" height="1.5"/>
		<rect x="37.7" y="42.6" class="st1" width="1.5" height="1.5"/>
		<rect x="40.8" y="42.6" class="st1" width="1.5" height="1.5"/>
		<rect x="43.8" y="42.6" class="st1" width="1.5" height="1.5"/>
		<rect x="40.8" y="45.7" class="st1" width="1.5" height="1.5"/>
		<rect x="37.7" y="45.7" class="st1" width="1.5" height="1.5"/>
		<rect x="43.8" y="45.7" class="st1" width="1.5" height="1.5"/>
		<rect x="43.8" y="48.8" class="st1" width="1.5" height="1.5"/>
	</g>
</g>
</svg>
