<?xml version="1.0" encoding="utf-8"?>
<!-- Generator: Adobe Illustrator 22.0.0, SVG Export Plug-In . SVG Version: 6.00 Build 0)  -->
<svg version="1.1" id="Layer_1" xmlns="http://www.w3.org/2000/svg" xmlns:xlink="http://www.w3.org/1999/xlink" x="0px" y="0px"
	 viewBox="0 0 289.5 378" style="enable-background:new 0 0 289.5 378;" xml:space="preserve">
<style type="text/css">
	.st0{fill:#FFFFFF;}
	.st1{fill:#FFFFFF;stroke:#A3B3CC;stroke-width:0.834;stroke-miterlimit:10;}
	.st2{fill:#202632;}
	.st3{fill:#F7C400;}
</style>
<g>
	<path class="st0" d="M234.2,371.7H8V52.4h275.7v269.8C264.3,341.6,253.5,352.4,234.2,371.7"/>
	<path class="st1" d="M234.2,371.7H8V52.4h275.7v269.8C264.3,341.6,253.5,352.4,234.2,371.7z"/>
	<path class="st2" d="M234.8,371.7v-39c0-5.4,4.4-9.9,9.9-9.9h39L234.8,371.7z"/>
</g>
<g>
	<path class="st3" d="M189.7,51.7c0,24.5-19.9,44.4-44.4,44.4S101,76.2,101,51.7c0-24.5,19.9-44.4,44.4-44.4S189.7,27.2,189.7,51.7"
		/>
	<path class="st0" d="M127.8,51.9c0.3,0,0.5-0.1,0.7-0.3c0.2-0.2,0.3-0.4,0.3-0.7c0-0.3-0.1-0.5-0.3-0.7c-0.2-0.2-0.5-0.3-0.7-0.3
		c-0.3,0-0.5,0.1-0.7,0.3c-0.2,0.2-0.3,0.4-0.3,0.7c0,0.3,0.1,0.5,0.3,0.7C127.3,51.8,127.6,51.9,127.8,51.9"/>
	<path class="st0" d="M160.6,51.6c0.9,0.5,2,0.7,3.1,0.7c3.9,0,7-3.1,7-7c0-3.5-2.6-6.4-5.9-6.9c0.1-0.7,0.2-1.5,0.2-2.2
		c0-6.2-5-11.2-11.2-11.2c-6.2,0-11.2,5-11.2,11.2c0,0.4,0,0.7,0.1,1.1c-3.8,1.1-6.5,4.6-6.5,8.6c0,1.4,0.3,2.8,1,4h-5.1
		c-0.6,0-1,0.5-1,1c0,0.6,0.5,1,1,1h11.8v4.5h-22.9v-4.5h3c0.6,0,1-0.5,1-1c0-0.6-0.5-1-1-1h-4.1c-0.6,0-1,0.5-1,1v6.5
		c0,0.6,0.5,1,1,1h3v3.6h-3c-0.6,0-1,0.5-1,1v4.1c0,0.6,0.5,1,1,1h3v2.6h-3c-0.6,0-1,0.5-1,1c0,0.6,0.5,1,1,1h44.4c0.6,0,1-0.5,1-1
		c0-0.6-0.5-1-1-1h-0.1c0-0.1,0-0.2,0-0.3c0-3.2-2.6-5.8-5.8-5.8c-1.3,0-2.5,0.4-3.5,1.2v-10C157.3,55.5,159.5,53.9,160.6,51.6
		 M139.4,49.9c-0.9-1.2-1.3-2.6-1.3-4c0-3.4,2.4-6.3,5.8-6.8c0.3,0,0.5-0.2,0.7-0.4c0.2-0.2,0.2-0.5,0.2-0.8
		c-0.1-0.6-0.2-1.1-0.2-1.7c0-5.1,4.1-9.2,9.2-9.2s9.2,4.1,9.2,9.2c0,1-0.2,1.9-0.5,2.9c-0.1,0.3,0,0.7,0.2,0.9
		c0.2,0.3,0.5,0.4,0.9,0.4c0.1,0,0.1,0,0.2,0c2.7,0,5,2.2,5,5c0,2.7-2.2,5-5,5c-1.1,0-2.1-0.3-3-1c-0.3-0.2-0.6-0.3-0.9-0.1
		c-0.3,0.1-0.6,0.4-0.6,0.7c-0.6,2.1-2.3,3.6-4.4,4v-6.7l5-5c0.4-0.4,0.4-1,0-1.4s-1-0.4-1.4,0l-3.6,3.6v-4.1c0-0.6-0.5-1-1-1
		c-0.6,0-1,0.5-1,1v6.5v0v1.2l-3.9-3.9c-0.4-0.4-1-0.4-1.4,0c-0.4,0.4-0.4,1,0,1.4l5.3,5.3c0,0,0,0,0.1,0.1v3.1
		c-1.2-0.2-2.2-0.8-3.1-1.7c-0.3-0.3-0.8-0.4-1.2-0.2c-0.8,0.5-1.8,0.7-2.7,0.8v-1.9c0-0.6-0.5-1-1-1H139.4z M144.7,58.4
		c0.6,0,1-0.5,1-1v-2.6c1-0.1,2.1-0.3,3-0.8c1.1,1,2.5,1.6,4,1.8v10.7c-2.3,0.3-4.1,2-4.6,4.2h-6.5v-2.6h3c0.6,0,1-0.5,1-1v-4.1
		c0-0.6-0.5-1-1-1h-3v-3.6H144.7z M124.8,58.4h14.8v3.6h-14.8V58.4z M120.7,64.1h22.9v2h-22.9V64.1z M124.8,68.2h14.8v2.6h-14.8
		V68.2z M155.2,68.3c0.7-1,1.9-1.6,3.1-1.6c2.1,0,3.8,1.7,3.8,3.8c0,0.1,0,0.2,0,0.3h-11.8c0.4-1.3,1.7-2.2,3.1-2.2
		c0.3,0,0.5,0,0.8,0.1C154.5,68.8,154.9,68.6,155.2,68.3"/>
	<path class="st0" d="M153.7,37.1c0.3,0,0.5-0.1,0.7-0.3c0.2-0.2,0.3-0.5,0.3-0.7c0-0.3-0.1-0.5-0.3-0.7c-0.2-0.2-0.4-0.3-0.7-0.3
		c-0.3,0-0.5,0.1-0.7,0.3c-0.2,0.2-0.3,0.5-0.3,0.7c0,0.3,0.1,0.5,0.3,0.7C153.2,37,153.5,37.1,153.7,37.1"/>
</g>
</svg>
