<?xml version="1.0" encoding="utf-8"?>
<!-- Generator: Adobe Illustrator 22.0.0, SVG Export Plug-In . SVG Version: 6.00 Build 0)  -->
<svg version="1.1" id="Layer_1" xmlns="http://www.w3.org/2000/svg" xmlns:xlink="http://www.w3.org/1999/xlink" x="0px" y="0px"
	 viewBox="0 0 104.5 104" style="enable-background:new 0 0 104.5 104;" xml:space="preserve">
<style type="text/css">
	.st0{fill:#F7C400;}
	.st1{fill:#FFFFFF;}
</style>
<g>
	<path class="st0" d="M97.7,51.7c0,24.5-19.9,44.4-44.4,44.4S9,76.2,9,51.7S28.9,7.3,53.4,7.3S97.7,27.2,97.7,51.7"/>
	<path class="st1" d="M35.8,51.9c0.3,0,0.5-0.1,0.7-0.3s0.3-0.4,0.3-0.7s-0.1-0.5-0.3-0.7s-0.5-0.3-0.7-0.3c-0.3,0-0.5,0.1-0.7,0.3
		s-0.3,0.4-0.3,0.7s0.1,0.5,0.3,0.7C35.3,51.8,35.6,51.9,35.8,51.9"/>
	<path class="st1" d="M68.6,51.6c0.9,0.5,2,0.7,3.1,0.7c3.9,0,7-3.1,7-7c0-3.5-2.6-6.4-5.9-6.9c0.1-0.7,0.2-1.5,0.2-2.2
		C73,30,68,25,61.8,25s-11.2,5-11.2,11.2c0,0.4,0,0.7,0.1,1.1c-3.8,1.1-6.5,4.6-6.5,8.6c0,1.4,0.3,2.8,1,4h-5.1c-0.6,0-1,0.5-1,1
		c0,0.6,0.5,1,1,1h11.8v4.5H29v-4.5h3c0.6,0,1-0.5,1-1c0-0.6-0.5-1-1-1h-4.1c-0.6,0-1,0.5-1,1v6.5c0,0.6,0.5,1,1,1h3V62h-3
		c-0.6,0-1,0.5-1,1v4.1c0,0.6,0.5,1,1,1h3v2.6h-3c-0.6,0-1,0.5-1,1c0,0.6,0.5,1,1,1h44.4c0.6,0,1-0.5,1-1c0-0.6-0.5-1-1-1h-0.1
		c0-0.1,0-0.2,0-0.3c0-3.2-2.6-5.8-5.8-5.8c-1.3,0-2.5,0.4-3.5,1.2v-10C65.3,55.5,67.5,53.9,68.6,51.6 M47.4,49.9
		c-0.9-1.2-1.3-2.6-1.3-4c0-3.4,2.4-6.3,5.8-6.8c0.3,0,0.5-0.2,0.7-0.4s0.2-0.5,0.2-0.8c-0.1-0.6-0.2-1.1-0.2-1.7
		c0-5.1,4.1-9.2,9.2-9.2s9.2,4.1,9.2,9.2c0,1-0.2,1.9-0.5,2.9c-0.1,0.3,0,0.7,0.2,0.9c0.2,0.3,0.5,0.4,0.9,0.4c0.1,0,0.1,0,0.2,0
		c2.7,0,5,2.2,5,5c0,2.7-2.2,5-5,5c-1.1,0-2.1-0.3-3-1c-0.3-0.2-0.6-0.3-0.9-0.1c-0.3,0.1-0.6,0.4-0.6,0.7c-0.6,2.1-2.3,3.6-4.4,4
		v-6.7l5-5c0.4-0.4,0.4-1,0-1.4s-1-0.4-1.4,0l-3.6,3.6v-4.1c0-0.6-0.5-1-1-1c-0.6,0-1,0.5-1,1v6.5l0,0v1.2L57,44.2
		c-0.4-0.4-1-0.4-1.4,0s-0.4,1,0,1.4l5.3,5.3c0,0,0,0,0.1,0.1v3.1c-1.2-0.2-2.2-0.8-3.1-1.7c-0.3-0.3-0.8-0.4-1.2-0.2
		c-0.8,0.5-1.8,0.7-2.7,0.8v-1.9c0-0.6-0.5-1-1-1h-5.6V49.9z M52.7,58.4c0.6,0,1-0.5,1-1v-2.6c1-0.1,2.1-0.3,3-0.8
		c1.1,1,2.5,1.6,4,1.8v10.7c-2.3,0.3-4.1,2-4.6,4.2h-6.5v-2.6h3c0.6,0,1-0.5,1-1V63c0-0.6-0.5-1-1-1h-3v-3.6H52.7z M32.8,58.4h14.8
		V62H32.8V58.4z M28.7,64.1h22.9v2H28.7C28.7,66.1,28.7,64.1,28.7,64.1z M32.8,68.2h14.8v2.6H32.8V68.2z M63.2,68.3
		c0.7-1,1.9-1.6,3.1-1.6c2.1,0,3.8,1.7,3.8,3.8c0,0.1,0,0.2,0,0.3H58.3c0.4-1.3,1.7-2.2,3.1-2.2c0.3,0,0.5,0,0.8,0.1
		C62.5,68.8,62.9,68.6,63.2,68.3"/>
	<path class="st1" d="M61.7,37.1c0.3,0,0.5-0.1,0.7-0.3s0.3-0.5,0.3-0.7c0-0.3-0.1-0.5-0.3-0.7s-0.4-0.3-0.7-0.3s-0.5,0.1-0.7,0.3
		s-0.3,0.5-0.3,0.7c0,0.3,0.1,0.5,0.3,0.7S61.5,37.1,61.7,37.1"/>
</g>
</svg>
