<?xml version="1.0" encoding="utf-8"?>
<!-- Generator: Adobe Illustrator 22.0.0, SVG Export Plug-In . SVG Version: 6.00 Build 0)  -->
<svg version="1.1" id="Layer_1" xmlns="http://www.w3.org/2000/svg" xmlns:xlink="http://www.w3.org/1999/xlink" x="0px" y="0px"
	 viewBox="0 0 102.5 105" style="enable-background:new 0 0 102.5 105;" xml:space="preserve">
<style type="text/css">
	.st0{fill:#FFFFFF;}
	.st1{fill:#F7C400;}
</style>
<path class="st0" d="M42,40.4c-0.4-0.4-1-0.4-1.4,0s-0.4,1,0,1.4s1,0.4,1.4,0S42.4,40.8,42,40.4"/>
<path class="st0" d="M55.5,67.7c0.4-0.6,0.7-1.3,0.7-2.1c0-1.9-1.6-3.5-3.5-3.5h-17c-0.9,0-1.8,0.4-2.5,1c-0.7,0.7-1,1.5-1,2.5
	c0,0.8,0.3,1.5,0.7,2.1c-1.6,0.8-2.7,2.5-2.7,4.4v1c0,0.6,0.4,1,1,1h25.9c0.6,0,1-0.4,1-1v-1C58.2,70.2,57.1,68.5,55.5,67.7
	 M34.7,64.6c0.3-0.3,0.7-0.4,1.1-0.4h17c0.8,0,1.5,0.7,1.5,1.5c0,0.4-0.2,0.8-0.4,1.1c-0.3,0.3-0.7,0.4-1.1,0.4h-17
	c-0.8,0-1.5-0.7-1.5-1.5C34.2,65.2,34.4,64.8,34.7,64.6 M32.2,72.1c0-1.6,1.3-3,3-3h0.5h17h0.5c1.6,0,3,1.3,3,3H32.2z"/>
<path class="st1" d="M95.6,52.2c0,24.5-19.9,44.4-44.4,44.4S6.8,76.7,6.8,52.2S26.7,7.8,51.2,7.8C75.7,7.8,95.6,27.7,95.6,52.2"/>
<path class="st0" d="M77.9,31.1H73v-1.7h1.7c0.4,0,0.8-0.4,0.8-0.8s-0.4-0.8-0.8-0.8h-4.9c-0.4,0-0.8,0.4-0.8,0.8s0.4,0.8,0.8,0.8
	h1.7v1.7h-8.7v-1.7h1.7c0.4,0,0.8-0.4,0.8-0.8s-0.4-0.8-0.8-0.8h-4.9c-0.4,0-0.8,0.4-0.8,0.8s0.4,0.8,0.8,0.8h1.7v1.7h-8.7v-1.7h1.7
	c0.4,0,0.8-0.4,0.8-0.8s-0.4-0.8-0.8-0.8h-4.9c-0.4,0-0.8,0.4-0.8,0.8s0.4,0.8,0.8,0.8h1.7v1.7h-8.7v-1.7h1.7c0.4,0,0.8-0.4,0.8-0.8
	s-0.4-0.8-0.8-0.8H39c-0.4,0-0.8,0.4-0.8,0.8s0.4,0.8,0.8,0.8h1.7v1.7H32v-1.7h1.7c0.4,0,0.8-0.4,0.8-0.8s-0.4-0.8-0.8-0.8h-4.9
	c-0.4,0-0.8,0.4-0.8,0.8s0.4,0.8,0.8,0.8h1.7v1.7h-4.9c-0.4,0-0.8,0.4-0.8,0.8v29.5c0,0.4,0.4,0.8,0.8,0.8h2.5v2.5
	c0,0.4,0.4,0.8,0.8,0.8H33v1.7h-0.8c-0.4,0-0.8,0.4-0.8,0.8s0.4,0.8,0.8,0.8h14v4.3c0,0.4,0.4,0.8,0.8,0.8c0.4,0,0.8-0.4,0.8-0.8
	v-4.3H56v11.5h-8.2v-3.7c0-0.4-0.4-0.8-0.8-0.8c-0.4,0-0.8,0.4-0.8,0.8V81c0,0.4,0.4,0.8,0.8,0.8h9.8c0.4,0,0.8-0.4,0.8-0.8V68.7h14
	c0.4,0,0.8-0.4,0.8-0.8s-0.4-0.8-0.8-0.8h-0.8v-1.7h4.1c0.4,0,0.8-0.4,0.8-0.8v-2.5h2.5c0.4,0,0.8-0.4,0.8-0.8V31.9
	C78.7,31.5,78.4,31.1,77.9,31.1 M34.5,65.4h5v1.7h-5V65.4z M44.7,65.4l0.9,1.7h-4.5v-1.7H44.7z M47.3,67.1l-0.9-1.7h10.7l-0.8,1.7
	H47.3z M62.4,65.4v1.7h-4.3l0.8-1.7H62.4z M69,67.1h-5v-1.7h5V67.1z M77.2,60.6h-11c-0.4,0-0.8,0.4-0.8,0.8s0.4,0.8,0.8,0.8h7.7v1.7
	H29.6v-1.7h33.1c0.4,0,0.8-0.4,0.8-0.8s-0.4-0.8-0.8-0.8H26.3V32.7h50.8v27.9H77.2z"/>
<path class="st0" d="M37.9,35.2c0,0.4,0.4,0.8,0.8,0.8h35.2v21.3H29.6V36h5.7c0.4,0,0.8-0.4,0.8-0.8c0-0.4-0.4-0.8-0.8-0.8h-6.5
	c-0.4,0-0.8,0.4-0.8,0.8v22.9c0,0.4,0.4,0.8,0.8,0.8h45.9c0.4,0,0.8-0.4,0.8-0.8V35.2c0-0.4-0.4-0.8-0.8-0.8h-36
	C38.3,34.4,37.9,34.7,37.9,35.2"/>
</svg>
