<?xml version="1.0" encoding="utf-8"?>
<!-- Generator: Adobe Illustrator 22.0.0, SVG Export Plug-In . SVG Version: 6.00 Build 0)  -->
<svg version="1.1" id="Layer_2" xmlns="http://www.w3.org/2000/svg" xmlns:xlink="http://www.w3.org/1999/xlink" x="0px" y="0px"
	 viewBox="0 0 289.5 378" style="enable-background:new 0 0 289.5 378;" xml:space="preserve">
<style type="text/css">
	.st0{fill:#FFFFFF;stroke:#A3B3CC;stroke-width:0.834;stroke-miterlimit:10;}
	.st1{fill:#202633;}
	.st2{fill:#F6C415;}
	.st3{fill:#FFFFFF;}
</style>
<path class="st0" d="M233.2,371.5H7V52.2h275.7V322C263.4,341.4,252.5,352.2,233.2,371.5z"/>
<path class="st1" d="M233.8,371.5v-39c0-5.4,4.4-9.9,9.9-9.9h39L233.8,371.5z"/>
<path class="st2" d="M189.2,52c0,24.5-19.9,44.4-44.4,44.4S100.4,76.5,100.4,52s19.9-44.4,44.4-44.4C169.4,7.6,189.2,27.5,189.2,52"
	/>
<path class="st3" d="M154.1,60.1c-1.1,0-2-0.8-2-1.7s0.9-1.7,2-1.7s2,0.8,2,1.7c0,0.5,0.4,0.9,0.9,0.9s0.9-0.4,0.9-0.9
	c0-1.7-1.2-3-2.9-3.4v-0.5c0-0.5-0.4-0.9-0.9-0.9s-0.9,0.4-0.9,0.9V55c-1.7,0.4-2.9,1.8-2.9,3.4c0,1.9,1.7,3.5,3.8,3.5
	c1.1,0,2,0.8,2,1.7c0,0.9-0.9,1.7-2,1.7s-2-0.8-2-1.7c0-0.5-0.4-0.9-0.9-0.9s-0.9,0.4-0.9,0.9c0,1.7,1.2,3,2.9,3.4v0.4
	c0,0.5,0.4,0.9,0.9,0.9s0.9-0.4,0.9-0.9V67c1.7-0.4,2.9-1.8,2.9-3.4C157.9,61.7,156.2,60.1,154.1,60.1"/>
<path class="st3" d="M164,54.8c-1.2-1.8-2.8-3.3-4.8-4.3c-0.4-0.2-1,0-1.2,0.4s0,1,0.4,1.2c3.4,1.6,5.6,5.2,5.6,9
	c0,1.6-0.4,3.2-1.2,4.7c-0.2,0.4-0.1,1,0.4,1.2c0.1,0.1,0.3,0.1,0.4,0.1c0.3,0,0.6-0.2,0.8-0.5c0.9-1.7,1.4-3.6,1.4-5.5
	C165.9,58.8,165.2,56.6,164,54.8"/>
<path class="st3" d="M155.5,49.4L155.5,49.4c-0.6,0-1,0.4-1,0.9s0.4,0.9,0.9,0.9h0.1l0,0c0.5,0,0.9-0.4,0.9-0.9S156,49.4,155.5,49.4
	"/>
<path class="st3" d="M149.8,70c-3.4-1.6-5.6-5.2-5.6-9c0-1.6,0.4-3.2,1.2-4.7c0.2-0.4,0.1-1-0.4-1.2c-0.4-0.2-1-0.1-1.2,0.4
	c-0.9,1.7-1.4,3.6-1.4,5.5c0,2.3,0.6,4.4,1.9,6.3c1.2,1.8,2.8,3.3,4.8,4.3c0.1,0.1,0.3,0.1,0.4,0.1c0.3,0,0.7-0.2,0.8-0.5
	C150.5,70.8,150.3,70.3,149.8,70"/>
<path class="st3" d="M152.8,71L152.8,71c-0.6,0-1,0.4-1,0.9s0.4,0.9,0.9,0.9h0.1c0.5,0,0.9-0.4,0.9-0.9S153.3,71,152.8,71"/>
<path class="st3" d="M158.2,46.3c-0.1-0.3-0.2-0.5-0.4-0.7h2.3c2.3,0,4.2-1.9,4.2-4.2s-1.9-4.2-4.2-4.2h-7.2
	c0.5-0.7,0.7-1.5,0.7-2.3c0-2.3-1.9-4.2-4.2-4.2h-22c-2.3,0-4.2,1.9-4.2,4.2s1.9,4.2,4.2,4.2h7.2c-0.5,0.7-0.7,1.5-0.7,2.3
	s0.3,1.7,0.7,2.3h-2.4c-2.3,0-4.2,1.9-4.2,4.2c0,1.3,0.6,2.5,1.6,3.2c-1,0.8-1.6,1.9-1.6,3.2s0.6,2.5,1.6,3.2
	c-1,0.8-1.6,1.9-1.6,3.2s0.6,2.5,1.6,3.2c-1,0.8-1.6,1.9-1.6,3.2c0,2.3,1.9,4.2,4.2,4.2h10.6c2.8,3,6.8,4.9,11.2,4.9
	c8.5,0,15.3-6.9,15.3-15.3C169.5,54,164.7,48.1,158.2,46.3 M160.2,39.1c1.3,0,2.3,1.1,2.3,2.3c0,1.3-1.1,2.3-2.3,2.3h-5.8h-16.3
	c-1.3,0-2.3-1.1-2.3-2.3c0-1.3,1.1-2.3,2.3-2.3H160.2z M127.4,37.3c-1.3,0-2.3-1.1-2.3-2.3c0-1.3,1.1-2.3,2.3-2.3h22.1
	c1.3,0,2.3,1.1,2.3,2.3c0,1.3-1.1,2.3-2.3,2.3H127.4z M132.3,45.6h22.1c0.4,0,0.7,0.1,1,0.2c-0.4,0-0.9-0.1-1.3-0.1
	c-4.2,0-8.1,1.7-10.9,4.5h-11c-1.3,0-2.3-1.1-2.3-2.3C129.9,46.6,131,45.6,132.3,45.6 M132.3,52.1h9.4c-1,1.4-1.8,3-2.3,4.7h-7.1
	c-1.3,0-2.3-1.1-2.3-2.3C129.9,53.1,131,52.1,132.3,52.1 M132.3,58.6h6.7c-0.1,0.8-0.2,1.7-0.2,2.5c0,0.7,0.1,1.5,0.2,2.2h-6.7
	c-1.3,0-2.3-1.1-2.3-2.3C129.9,59.6,131,58.6,132.3,58.6 M132.3,69.8c-1.3,0-2.3-1.1-2.3-2.3c0-1.3,1.1-2.3,2.3-2.3h7
	c0.5,1.7,1.2,3.3,2.2,4.7L132.3,69.8L132.3,69.8z M154.1,74.6c-7.5,0-13.5-6.1-13.5-13.5c0-7.5,6.1-13.5,13.5-13.5
	c7.5,0,13.5,6.1,13.5,13.5C167.7,68.6,161.6,74.6,154.1,74.6"/>
</svg>
