<?xml version="1.0" encoding="utf-8"?>
<!-- Generator: Adobe Illustrator 22.0.0, SVG Export Plug-In . SVG Version: 6.00 Build 0)  -->
<svg version="1.1" id="Layer_1" xmlns="http://www.w3.org/2000/svg" xmlns:xlink="http://www.w3.org/1999/xlink" x="0px" y="0px"
	 viewBox="0 0 101.5 105" style="enable-background:new 0 0 101.5 105;" xml:space="preserve">
<style type="text/css">
	.st0{fill:#F7C400;}
	.st1{fill:#FFFFFF;}
</style>
<g>
	<path class="st0" d="M92.7,51.7c0,24.5-19.9,44.4-44.4,44.4S4,76.2,4,51.7S23.9,7.3,48.4,7.3S92.7,27.2,92.7,51.7"/>
	<path class="st1" d="M30.8,51.9c0.3,0,0.5-0.1,0.7-0.3s0.3-0.4,0.3-0.7s-0.1-0.5-0.3-0.7s-0.5-0.3-0.7-0.3c-0.3,0-0.5,0.1-0.7,0.3
		s-0.3,0.4-0.3,0.7s0.1,0.5,0.3,0.7C30.3,51.8,30.6,51.9,30.8,51.9"/>
	<path class="st1" d="M56.7,37.1c0.3,0,0.5-0.1,0.7-0.3s0.3-0.5,0.3-0.7c0-0.3-0.1-0.5-0.3-0.7s-0.4-0.3-0.7-0.3s-0.5,0.1-0.7,0.3
		s-0.3,0.5-0.3,0.7c0,0.3,0.1,0.5,0.3,0.7S56.5,37.1,56.7,37.1"/>
	<g>
		<path class="st1" d="M56,57.4c-1.1,0-2-0.8-2-1.7s0.9-1.7,2-1.7s2,0.8,2,1.7c0,0.5,0.4,0.9,0.9,0.9s0.9-0.4,0.9-0.9
			c0-1.7-1.2-3-2.9-3.4v-0.5c0-0.5-0.4-0.9-0.9-0.9s-0.9,0.4-0.9,0.9v0.5c-1.7,0.4-2.9,1.8-2.9,3.4c0,1.9,1.7,3.5,3.8,3.5
			c1.1,0,2,0.8,2,1.7s-0.9,1.7-2,1.7s-2-0.8-2-1.7c0-0.5-0.4-0.9-0.9-0.9s-0.9,0.4-0.9,0.9c0,1.7,1.2,3,2.9,3.4v0.4
			c0,0.5,0.4,0.9,0.9,0.9s0.9-0.4,0.9-0.9v-0.4c1.7-0.4,2.9-1.8,2.9-3.4C59.8,59,58.1,57.4,56,57.4"/>
		<path class="st1" d="M65.9,52.1c-1.2-1.8-2.8-3.3-4.8-4.3c-0.4-0.2-1,0-1.2,0.4s0,1,0.4,1.2c3.4,1.6,5.6,5.2,5.6,9
			c0,1.6-0.4,3.2-1.2,4.7c-0.2,0.4-0.1,1,0.4,1.2c0.1,0.1,0.3,0.1,0.4,0.1c0.3,0,0.6-0.2,0.8-0.5c0.9-1.7,1.4-3.6,1.4-5.5
			C67.8,56.1,67.1,53.9,65.9,52.1"/>
		<path class="st1" d="M57.4,46.7L57.4,46.7c-0.6,0-1,0.4-1,0.9s0.4,0.9,0.9,0.9h0.1l0,0c0.5,0,0.9-0.4,0.9-0.9S57.9,46.7,57.4,46.7
			"/>
		<path class="st1" d="M51.7,67.3c-3.4-1.6-5.6-5.2-5.6-9c0-1.6,0.4-3.2,1.2-4.7c0.2-0.4,0.1-1-0.4-1.2c-0.4-0.2-1-0.1-1.2,0.4
			c-0.9,1.7-1.4,3.6-1.4,5.5c0,2.3,0.6,4.4,1.9,6.3c1.2,1.8,2.8,3.3,4.8,4.3c0.1,0.1,0.3,0.1,0.4,0.1c0.3,0,0.7-0.2,0.8-0.5
			C52.4,68.1,52.2,67.6,51.7,67.3"/>
		<path class="st1" d="M54.7,68.3L54.7,68.3c-0.6,0-1,0.4-1,0.9s0.4,0.9,0.9,0.9h0.1c0.5,0,0.9-0.4,0.9-0.9S55.2,68.3,54.7,68.3"/>
		<path class="st1" d="M60.1,43.6c-0.1-0.3-0.2-0.5-0.4-0.7H62c2.3,0,4.2-1.9,4.2-4.2s-1.9-4.2-4.2-4.2h-7.2
			c0.5-0.7,0.7-1.5,0.7-2.3c0-2.3-1.9-4.2-4.2-4.2h-22c-2.3,0-4.2,1.9-4.2,4.2s1.9,4.2,4.2,4.2h7.2c-0.5,0.7-0.7,1.5-0.7,2.3
			s0.3,1.7,0.7,2.3h-2.4c-2.3,0-4.2,1.9-4.2,4.2c0,1.3,0.6,2.5,1.6,3.2c-1,0.8-1.6,1.9-1.6,3.2s0.6,2.5,1.6,3.2
			c-1,0.8-1.6,1.9-1.6,3.2s0.6,2.5,1.6,3.2c-1,0.8-1.6,1.9-1.6,3.2c0,2.3,1.9,4.2,4.2,4.2h10.6c2.8,3,6.8,4.9,11.2,4.9
			c8.5,0,15.3-6.9,15.3-15.3C71.4,51.3,66.6,45.4,60.1,43.6 M62.1,36.4c1.3,0,2.3,1.1,2.3,2.3c0,1.3-1.1,2.3-2.3,2.3h-5.8H40
			c-1.3,0-2.3-1.1-2.3-2.3c0-1.3,1.1-2.3,2.3-2.3H62.1z M29.3,34.6c-1.3,0-2.3-1.1-2.3-2.3c0-1.3,1.1-2.3,2.3-2.3h22.1
			c1.3,0,2.3,1.1,2.3,2.3c0,1.3-1.1,2.3-2.3,2.3H29.3z M34.2,42.9h22.1c0.4,0,0.7,0.1,1,0.2c-0.4,0-0.9-0.1-1.3-0.1
			c-4.2,0-8.1,1.7-10.9,4.5h-11c-1.3,0-2.3-1.1-2.3-2.3C31.8,43.9,32.9,42.9,34.2,42.9 M34.2,49.4h9.4c-1,1.4-1.8,3-2.3,4.7h-7.1
			c-1.3,0-2.3-1.1-2.3-2.3C31.8,50.4,32.9,49.4,34.2,49.4 M34.2,55.9h6.7c-0.1,0.8-0.2,1.7-0.2,2.5c0,0.7,0.1,1.5,0.2,2.2h-6.7
			c-1.3,0-2.3-1.1-2.3-2.3C31.8,56.9,32.9,55.9,34.2,55.9 M34.2,67.1c-1.3,0-2.3-1.1-2.3-2.3c0-1.3,1.1-2.3,2.3-2.3h7
			c0.5,1.7,1.2,3.3,2.2,4.7L34.2,67.1L34.2,67.1z M56,71.9c-7.5,0-13.5-6.1-13.5-13.5c0-7.5,6.1-13.5,13.5-13.5
			c7.5,0,13.5,6.1,13.5,13.5C69.6,65.9,63.5,71.9,56,71.9"/>
	</g>
</g>
</svg>
